<svg xmlns="http://www.w3.org/2000/svg" width="1000" height="1000" viewBox="0 0 1000 1000" version="1.1"><path d="M 303.627 130.468 C 294.859 133.594, 287.409 142.748, 286.349 151.700 C 285.526 158.652, 288.196 166.805, 293.135 172.416 L 296.982 176.786 294.865 181.573 C 292.819 186.198, 292.804 186.536, 294.408 191.624 C 297.800 202.387, 310.211 209.143, 320.417 205.783 L 324.981 204.280 326.741 207.016 C 332.218 215.531, 342.934 219.144, 351.768 215.452 C 358.518 212.632, 363 206.884, 363 201.050 C 363 198.278, 363.296 197.999, 366.250 197.990 C 369.750 197.980, 378.160 194.287, 381.644 191.231 C 384.558 188.675, 388.604 180.423, 389.461 175.287 C 391.057 165.715, 384.966 154.516, 374.748 148.235 C 369.905 145.258, 367.851 144.628, 361.748 144.250 C 356.529 143.927, 353.240 144.268, 350 145.467 C 342.195 148.356, 342.306 148.354, 341.620 145.621 C 340.555 141.378, 331.723 133.414, 325.501 131.086 C 319.009 128.657, 309.465 128.387, 303.627 130.468 M 183.402 178.479 C 166.314 182.216, 153.013 195.483, 150.218 211.577 C 147.917 224.823, 151.932 237.294, 162.069 248.385 C 166.712 253.466, 167.107 254.240, 165.835 255.780 C 162.570 259.732, 161.501 263.482, 161.523 270.901 C 161.550 279.750, 163.441 284.206, 169.920 290.684 C 176.517 297.282, 183.381 300.091, 193.213 300.217 C 198.689 300.288, 203.026 299.762, 206 298.667 C 210.202 297.119, 210.566 297.121, 211.500 298.689 C 212.050 299.613, 214.274 302.343, 216.442 304.755 C 234.688 325.054, 267.664 317.728, 270.603 292.721 C 271.272 287.027, 271.291 287, 274.638 287 C 276.487 287, 278.113 287.014, 278.250 287.032 C 279.026 287.132, 290.170 282.963, 292.897 281.553 C 294.669 280.637, 297.931 278.251, 300.144 276.251 C 324.751 254.020, 314.876 216.540, 281.179 204.268 C 268.816 199.765, 257.384 200.292, 245.362 205.918 L 239.149 208.825 236.389 203.163 C 227.538 185.007, 203.899 173.995, 183.402 178.479 M 749.600 706.473 C 739.160 710.765, 733.474 718.169, 732.349 728.935 L 731.726 734.895 728.613 734.198 C 721.839 732.680, 712.691 733.495, 706.994 736.125 C 683.100 747.154, 685.847 777.446, 711.905 790.274 C 717.512 793.034, 719.609 793.494, 728.161 793.837 L 737.980 794.232 740.046 797.574 C 744.696 805.099, 752.013 809.012, 761.372 808.978 C 772.173 808.939, 779.820 803.574, 782.126 794.415 L 783.237 790 788.869 789.978 C 802.905 789.923, 811.978 779.415, 808.937 766.738 C 808.033 762.968, 806.503 760.442, 802.801 756.608 C 798.630 752.286, 797.985 751.115, 798.616 749 C 799.026 747.625, 799.379 742.675, 799.400 738 C 799.429 731.588, 798.982 728.640, 797.582 726 C 788.127 708.171, 766.691 699.447, 749.600 706.473" stroke="none" fill="#fb9cbe" fill-rule="evenodd"/><path d="M 482.500 124.095 C 450.207 126.264, 421.476 131.830, 389.417 142.127 C 373.760 147.156, 373.540 147.266, 375.959 148.870 C 381.473 152.526, 384.035 155.370, 386.698 160.796 C 390.253 168.039, 390.431 176.363, 387.166 182.710 C 385.975 185.026, 385 187.090, 385 187.296 C 385 187.503, 391.413 185.512, 399.250 182.870 C 421.472 175.381, 441.251 170.850, 467 167.347 C 485.625 164.814, 530.871 164.806, 549 167.333 C 592.102 173.340, 625.129 183.432, 661 201.554 C 694.169 218.312, 721.070 237.901, 748.034 264.931 C 796.275 313.289, 827.524 372.060, 840.854 439.500 C 845.355 462.275, 846.392 474.329, 846.402 504 C 846.413 537.124, 844.928 550.998, 838.103 581.560 C 829.281 621.063, 807.579 668.821, 783.529 701.653 L 779.022 707.806 784.050 711.032 C 789.381 714.453, 794.586 720.226, 797.544 726 C 799.793 730.389, 800.746 743.738, 799.038 746.928 C 796.338 751.974, 799.225 749.671, 805.427 741.833 C 892.747 631.472, 913.092 484.506, 858.850 355.919 C 795.834 206.533, 644.354 113.225, 482.500 124.095 M 284.559 195.698 L 275.618 202.265 281.732 204.479 C 292.993 208.556, 303.328 216.947, 307.851 225.686 L 309.500 228.872 321.362 221.015 C 332.628 213.553, 333.116 213.091, 331.056 211.829 C 329.863 211.098, 328.013 209.099, 326.946 207.386 L 325.005 204.272 320.429 205.779 C 316.635 207.028, 314.940 207.081, 310.506 206.089 C 303.816 204.592, 296.747 198.712, 294.828 193.049 L 293.500 189.131 284.559 195.698 M 381.490 251.866 C 379.284 252.868, 375.909 253.992, 373.990 254.363 C 370.460 255.047, 358.407 262.021, 351.346 267.465 C 343.754 273.319, 334.386 284.053, 328.027 294.186 C 318.174 309.886, 315.073 324.028, 314.251 357 C 313.596 383.270, 316.664 406.411, 322.971 422.761 C 324.087 425.654, 325 428.954, 325 430.093 C 325 431.232, 326.185 435.615, 327.634 439.832 C 335.222 461.917, 358.285 493.538, 376.676 507.071 L 384.978 513.181 380.671 518.840 C 358.737 547.667, 347.385 588.014, 350.838 624.876 C 356.073 680.777, 387.950 727.100, 438.500 752.264 C 479.696 772.772, 534.304 772.772, 575.500 752.264 C 634.348 722.969, 668.823 662.634, 663.174 598.826 C 660.625 570.033, 649.714 540.048, 634.784 520.803 C 631.205 516.190, 631.735 515.154, 640.823 509 C 659.387 496.431, 684.498 462.732, 692.366 439.832 C 693.815 435.615, 695 431.232, 695 430.093 C 695 428.954, 695.913 425.654, 697.029 422.761 C 703.336 406.411, 706.404 383.270, 705.749 357 C 704.927 324.028, 701.826 309.886, 691.973 294.186 C 685.614 284.053, 676.246 273.319, 668.654 267.465 C 661.593 262.021, 649.540 255.047, 646.010 254.363 C 644.091 253.992, 640.716 252.868, 638.510 251.866 C 632.932 249.331, 620.179 249.358, 612.735 251.919 C 605.496 254.410, 596.807 260.009, 591.974 265.297 C 589.861 267.608, 583.689 274.272, 578.258 280.104 C 561.082 298.551, 544.610 327.392, 537.724 351.075 C 536.377 355.709, 534.110 364.450, 532.686 370.500 C 530.364 380.368, 529.455 386.208, 527.516 403.728 C 527.197 406.604, 526.535 418.754, 526.045 430.728 C 525.554 442.703, 524.868 453.230, 524.519 454.121 C 523.964 455.540, 522.179 455.681, 510.192 455.254 C 502.662 454.985, 496.130 454.426, 495.678 454.011 C 495.227 453.596, 494.453 443.289, 493.960 431.107 C 493.467 418.924, 492.803 406.604, 492.484 403.728 C 490.545 386.208, 489.636 380.368, 487.314 370.500 C 485.890 364.450, 483.623 355.709, 482.276 351.075 C 475.390 327.392, 458.918 298.551, 441.742 280.104 C 436.311 274.272, 430.139 267.608, 428.026 265.297 C 423.193 260.009, 414.504 254.410, 407.265 251.919 C 399.821 249.358, 387.068 249.331, 381.490 251.866 M 388.500 285.705 C 386.300 286.536, 383.287 287.662, 381.805 288.207 C 377.665 289.728, 366.660 298.905, 362.093 304.643 C 359.842 307.472, 358 310.044, 358 310.358 C 358 310.673, 356.699 312.982, 355.109 315.490 C 350.052 323.464, 347.512 343.290, 348.301 368.631 C 348.920 388.499, 350.085 396.058, 354.908 411.500 C 356.455 416.450, 358.261 422.750, 358.921 425.500 C 361.504 436.249, 373.180 455.266, 385.500 468.786 C 390.750 474.548, 401.253 483.322, 406.729 486.521 C 409.952 488.403, 409.965 488.402, 413.229 485.985 C 424.852 477.378, 443.177 467.669, 454.960 463.874 C 461.532 461.757, 462.062 461.383, 461.524 459.238 C 461.201 457.955, 460.516 446.689, 460 434.202 C 458.582 399.866, 456.923 387.555, 450.342 362.527 C 447.852 353.056, 440.319 336.384, 434.555 327.584 C 431.643 323.138, 428.535 318.076, 427.649 316.336 C 425.904 312.910, 405.765 291.232, 400.162 286.750 C 396.327 283.681, 394.331 283.503, 388.500 285.705 M 619.838 286.750 C 614.235 291.232, 594.096 312.910, 592.351 316.336 C 591.465 318.076, 588.357 323.138, 585.445 327.584 C 579.681 336.384, 572.148 353.056, 569.658 362.527 C 563.121 387.386, 561.371 400.321, 559.998 433.915 C 559.512 445.787, 558.820 457.328, 558.460 459.562 C 557.805 463.623, 557.806 463.625, 561.899 464.852 C 564.151 465.526, 570.832 468.508, 576.747 471.478 C 586.548 476.400, 592.236 479.932, 604.158 488.500 C 606.899 490.470, 608.471 491.084, 608.737 490.288 C 608.959 489.621, 610.797 488.069, 612.821 486.838 C 619.026 483.064, 629.240 474.560, 634.500 468.786 C 646.820 455.266, 658.496 436.249, 661.079 425.500 C 661.739 422.750, 663.545 416.450, 665.092 411.500 C 669.915 396.058, 671.080 388.499, 671.699 368.631 C 672.488 343.290, 669.948 323.464, 664.891 315.490 C 663.301 312.982, 662 310.673, 662 310.358 C 662 307.663, 646.435 292.444, 640.346 289.185 C 637.662 287.748, 626.328 284, 624.669 284 C 623.902 284, 621.728 285.238, 619.838 286.750 M 205.500 298.763 C 203.086 299.686, 198.457 300.267, 193.825 300.228 L 186.149 300.162 180.568 309.516 C 153.331 355.158, 135.896 407.287, 129.402 462.500 C 126.962 483.251, 126.937 524.971, 129.353 545 C 136.036 600.401, 151.458 647.851, 177.455 693 C 216.203 760.294, 272.543 812.838, 342.557 846.980 C 426.185 887.760, 525.057 895.886, 615.339 869.401 C 658.240 856.815, 697.940 837.010, 734.755 809.830 L 744.010 802.997 740.938 798.748 L 737.867 794.500 728.183 793.931 C 717.594 793.310, 711.335 791.178, 704.843 785.982 L 701.185 783.055 688.426 791.046 C 645.946 817.654, 602.309 833.182, 549 840.661 C 533.189 842.879, 486.912 843.183, 471 841.174 C 414.291 834.012, 367.465 817.110, 322 787.394 C 244.222 736.557, 190.267 654.688, 174.113 563 C 170.254 541.091, 169.499 531.131, 169.565 503 C 169.646 468.909, 171.894 450.279, 179.639 419.500 C 187.577 387.959, 202.251 353.631, 220.031 325.012 L 227.169 313.524 224.834 312.012 C 220.623 309.284, 213.875 302.659, 212.398 299.802 C 210.768 296.650, 210.952 296.678, 205.500 298.763 M 490 490.487 C 469.322 493.570, 451.298 500.966, 435.036 513.042 C 386.217 549.294, 371.211 614.469, 399.267 668.396 C 416.054 700.663, 447.203 723.914, 484 731.646 C 495.632 734.090, 518.368 734.090, 530 731.646 C 577.349 721.697, 613.498 687.158, 625.392 640.500 C 626.234 637.200, 627.476 629.179, 628.153 622.675 C 629.548 609.280, 628.407 594.325, 624.975 581 C 609.534 521.055, 550.498 481.466, 490 490.487 M 454.960 577.303 C 449.856 580.002, 446 586.326, 446 592 C 446 600.694, 454.306 609, 463 609 C 471.694 609, 480 600.694, 480 592 C 480 583.306, 471.694 575, 463 575 C 460.973 575, 457.355 576.036, 454.960 577.303 M 548.960 577.303 C 543.856 580.002, 540 586.326, 540 592 C 540 597.674, 543.856 603.998, 548.960 606.697 C 551.355 607.964, 554.973 609, 557 609 C 559.027 609, 562.645 607.964, 565.040 606.697 C 570.144 603.998, 574 597.674, 574 592 C 574 589.973, 572.964 586.355, 571.697 583.960 C 568.998 578.856, 562.674 575, 557 575 C 554.973 575, 551.355 576.036, 548.960 577.303 M 488.520 625.287 C 480.706 629.713, 477.682 640.535, 481.931 648.865 C 484.050 653.019, 492.508 660.061, 498.268 662.468 C 500.534 663.414, 505.018 664, 510 664 C 519.373 664, 523.106 662.704, 530.768 656.793 C 537.214 651.820, 540.006 646.821, 539.984 640.290 C 539.938 627.051, 526.005 618.876, 513.960 625.020 L 510 627.041 506.040 625.020 C 500.679 622.285, 493.631 622.392, 488.520 625.287 M 502.256 676.057 C 500.472 676.605, 497.453 678.614, 495.547 680.520 C 487.426 688.640, 489.010 702.112, 498.800 708.200 C 501.803 710.067, 503.912 710.500, 510 710.500 C 516.088 710.500, 518.197 710.067, 521.200 708.200 C 532.294 701.301, 532.396 684.734, 521.387 677.930 C 517.358 675.440, 507.429 674.468, 502.256 676.057" stroke="none" fill="#449bc3" fill-rule="evenodd"/></svg>