<svg xmlns="http://www.w3.org/2000/svg" width="1000" height="1000" viewBox="0 0 1000 1000" version="1.1"><path d="M 324.661 153.549 L 314.822 166 324.661 178.451 C 330.072 185.300, 334.725 190.903, 335 190.903 C 335.275 190.903, 339.928 185.300, 345.339 178.451 L 355.178 166 345.339 153.549 C 339.928 146.700, 335.275 141.097, 335 141.097 C 334.725 141.097, 330.072 146.700, 324.661 153.549 M 226.378 222.463 C 217.095 234.268, 209.500 244.410, 209.500 245 C 209.500 246.321, 242.964 289, 244 289 C 245.036 289, 278.500 246.321, 278.500 245 C 278.500 243.679, 245.036 201, 244 201 C 243.591 201, 235.661 210.658, 226.378 222.463 M 722.661 769.549 L 712.822 782 722.661 794.451 C 728.072 801.300, 732.725 806.903, 733 806.903 C 733.275 806.903, 737.928 801.300, 743.339 794.451 L 753.178 782 743.339 769.549 C 737.928 762.700, 733.275 757.097, 733 757.097 C 732.725 757.097, 728.072 762.700, 722.661 769.549" stroke="none" fill="#ffffff" fill-rule="evenodd"/><path d="M 328.686 100.958 C 327.138 101.455, 325.150 102.455, 324.267 103.181 C 321.380 105.553, 282.589 154.409, 280.771 157.961 C 278.499 162.403, 278.506 169.620, 280.787 174.039 C 283.326 178.955, 322.833 227.844, 325.881 229.841 C 329.502 232.214, 340.658 232.109, 344.384 229.668 C 348.373 227.054, 388.236 176.631, 389.820 172.196 C 391.203 168.321, 390.938 162.233, 389.200 158 C 387.725 154.407, 347.621 104.453, 344.647 102.504 C 341.684 100.563, 332.646 99.688, 328.686 100.958 M 325.007 152.983 C 319.785 159.570, 315.395 165.315, 315.250 165.750 C 314.876 166.872, 333.701 190.500, 334.968 190.500 C 336.059 190.500, 355 167.316, 355 165.981 C 355 165.129, 336.129 141.640, 335.134 141.254 C 334.785 141.118, 330.228 146.396, 325.007 152.983 M 237.475 160.002 C 235.811 160.518, 233.067 162.416, 231.376 164.220 C 228.386 167.411, 179.114 230.031, 175.706 234.973 C 174.459 236.779, 174 239.522, 174 245.163 L 174 252.880 179.205 259.690 C 182.068 263.436, 191.181 275.029, 199.455 285.454 C 207.730 295.878, 218.325 309.338, 223 315.364 C 234.040 329.594, 235.296 330.500, 244 330.500 C 249.391 330.500, 251.456 330.053, 253.677 328.405 C 256.117 326.595, 290.237 284.072, 308.037 260.657 L 314 252.813 314 245.128 C 314 236.088, 316.485 240.112, 290.046 206.345 C 259.400 167.205, 256.040 163.072, 253.523 161.423 C 250.628 159.526, 241.591 158.726, 237.475 160.002 M 239.709 205.250 C 226.567 221.557, 209 244.288, 209 244.988 C 209 246.231, 242.978 289.500, 243.954 289.500 C 244.735 289.500, 274.099 252.831, 277.615 247.465 C 279.114 245.178, 279.100 244.802, 277.430 242.252 C 273.805 236.721, 244.873 201, 244.017 201 C 243.531 201, 241.593 202.912, 239.709 205.250 M 726.686 716.958 C 725.138 717.455, 723.150 718.455, 722.267 719.181 C 719.380 721.553, 680.589 770.409, 678.771 773.961 C 676.292 778.806, 676.492 785.787, 679.250 790.667 C 682.652 796.688, 720.608 843.697, 723.706 845.727 C 727.445 848.177, 738.553 848.178, 742.290 845.730 C 745.464 843.650, 784.637 795.104, 787.229 790.039 C 789.708 785.194, 789.508 778.213, 786.750 773.333 C 783.528 767.631, 745.472 720.356, 742.577 718.459 C 739.673 716.556, 730.608 715.700, 726.686 716.958 M 723.231 768.472 C 718.133 774.777, 713.728 780.546, 713.442 781.291 C 712.882 782.750, 731.307 806.500, 733 806.500 C 734.641 806.500, 753.125 782.769, 752.584 781.358 C 751.923 779.636, 733.778 756.999, 733.062 757.004 C 732.753 757.006, 728.329 762.166, 723.231 768.472" stroke="none" fill="#fbd31b" fill-rule="evenodd"/><path d="M 482.500 124.095 C 451.677 126.166, 421.990 131.755, 393.059 140.935 C 386.217 143.106, 380.142 144.589, 379.559 144.230 C 378.977 143.872, 380.845 146.528, 383.712 150.133 C 393.458 162.391, 393.283 169.859, 382.944 182.812 C 379.656 186.930, 377.128 190.461, 377.325 190.658 C 377.522 190.856, 380.938 189.675, 384.916 188.035 C 406.984 178.935, 436.500 171.496, 467 167.347 C 485.625 164.814, 530.871 164.806, 549 167.333 C 592.102 173.340, 625.129 183.432, 661 201.554 C 694.169 218.312, 721.070 237.901, 748.034 264.931 C 796.275 313.289, 827.524 372.060, 840.854 439.500 C 845.355 462.275, 846.392 474.329, 846.402 504 C 846.413 537.124, 844.928 550.998, 838.103 581.560 C 827.076 630.936, 799.776 684.785, 765.765 724.244 C 762.319 728.242, 758.891 732.287, 758.146 733.234 C 756.944 734.762, 758.222 736.747, 769.575 750.977 C 776.605 759.790, 782.666 767, 783.043 767 C 784.039 767, 801.507 746.937, 809.163 737 C 899.342 619.954, 914.151 461.998, 847.225 331 C 777.892 195.290, 634.407 113.893, 482.500 124.095 M 289.729 191.999 C 288.283 193.136, 286.010 194.632, 284.678 195.323 C 282.261 196.577, 282.275 196.601, 294.709 212.539 C 301.558 221.318, 307.462 228.807, 307.831 229.182 C 308.199 229.558, 310.816 228.205, 313.646 226.176 L 318.793 222.486 306.824 207.493 C 291.337 188.092, 292.897 189.506, 289.729 191.999 M 496.500 248.127 C 452.427 253.632, 414.410 287.160, 402.900 330.673 L 400.738 338.846 371.119 339.173 C 330.408 339.623, 332.412 338.230, 328.592 368.740 C 327.361 378.571, 315.197 469.154, 294.919 619.500 C 292.694 636, 290.671 650.400, 290.424 651.500 C 290.001 653.381, 286 690.082, 286 692.075 C 286 692.639, 374.257 693, 512 693 C 649.743 693, 738 692.639, 738 692.075 C 738 690.082, 733.999 653.381, 733.576 651.500 C 733.329 650.400, 731.306 636, 729.081 619.500 C 708.803 469.154, 696.639 378.571, 695.408 368.740 C 692.708 347.171, 691.796 344.580, 685.741 341.271 C 682.889 339.713, 678.941 339.461, 652.881 339.173 L 623.262 338.846 621.100 330.673 C 606.593 275.828, 553.948 240.952, 496.500 248.127 M 193.052 289.835 C 157.530 343.052, 136.854 399.142, 129.402 462.500 C 126.962 483.251, 126.937 524.971, 129.353 545 C 136.036 600.401, 151.458 647.851, 177.455 693 C 216.203 760.294, 272.543 812.838, 342.557 846.980 C 433.695 891.422, 542.724 896.891, 638.411 861.821 C 659.367 854.140, 685.379 841.832, 701.653 831.897 C 705.038 829.830, 708.183 828.446, 708.643 828.820 C 709.605 829.603, 710.114 830.254, 694.148 810.281 L 681.983 795.062 676.779 798.130 C 666.720 804.062, 646.356 813.806, 632.500 819.318 C 605.696 829.981, 582.057 836.024, 549 840.661 C 533.189 842.879, 486.912 843.183, 471 841.174 C 414.291 834.012, 367.465 817.110, 322 787.394 C 244.222 736.557, 190.267 654.688, 174.113 563 C 170.254 541.091, 169.499 531.131, 169.565 503 C 169.646 468.909, 171.894 450.279, 179.639 419.500 C 187.309 389.021, 201.391 355.614, 218.235 327.937 L 224.664 317.373 211.577 300.765 C 204.379 291.630, 198.267 283.934, 197.995 283.664 C 197.723 283.393, 195.498 286.170, 193.052 289.835 M 498.500 290.401 C 482.068 294.167, 468.714 302.553, 458.114 315.761 C 453.193 321.891, 447.822 331.803, 446.467 337.250 L 445.783 340 512 340 L 578.217 340 577.533 337.250 C 574.165 323.706, 560.053 306.430, 545.500 298.032 C 532.378 290.460, 512.396 287.216, 498.500 290.401 M 365 382.449 C 365 383.246, 362.545 402.033, 359.545 424.199 C 356.544 446.365, 348.656 505, 342.016 554.500 C 335.376 604, 329.681 645.962, 329.360 647.750 L 328.777 651 512 651 L 695.223 651 694.640 647.750 C 694.319 645.962, 688.624 604, 681.984 554.500 C 675.344 505, 667.456 446.365, 664.455 424.199 C 661.455 402.033, 659 383.246, 659 382.449 C 659 381.190, 639.698 381, 512 381 C 384.302 381, 365 381.190, 365 382.449" stroke="none" fill="#449bc3" fill-rule="evenodd"/></svg>