<svg xmlns="http://www.w3.org/2000/svg" width="1000" height="1000" viewBox="0 0 1000 1000" version="1.1"><path d="M 324.661 153.549 L 314.822 166 324.661 178.451 C 330.072 185.300, 334.725 190.903, 335 190.903 C 335.275 190.903, 339.928 185.300, 345.339 178.451 L 355.178 166 345.339 153.549 C 339.928 146.700, 335.275 141.097, 335 141.097 C 334.725 141.097, 330.072 146.700, 324.661 153.549 M 226.378 222.463 C 217.095 234.268, 209.500 244.410, 209.500 245 C 209.500 246.321, 242.964 289, 244 289 C 245.036 289, 278.500 246.321, 278.500 245 C 278.500 243.679, 245.036 201, 244 201 C 243.591 201, 235.661 210.658, 226.378 222.463 M 722.661 769.549 L 712.822 782 722.661 794.451 C 728.072 801.300, 732.725 806.903, 733 806.903 C 733.275 806.903, 737.928 801.300, 743.339 794.451 L 753.178 782 743.339 769.549 C 737.928 762.700, 733.275 757.097, 733 757.097 C 732.725 757.097, 728.072 762.700, 722.661 769.549" stroke="none" fill="#ffffff" fill-rule="evenodd"/><path d="M 657 176.276 C 647.595 186.003, 642.018 192.486, 642.818 192.760 C 643.543 193.009, 649.168 195.689, 655.318 198.716 L 666.500 204.220 680.789 189.433 C 688.648 181.300, 694.948 174.004, 694.789 173.220 C 694.630 172.436, 689.550 169.196, 683.500 166.019 L 672.500 160.244 657 176.276 M 560.350 282.519 L 545.200 297.793 549.915 300.848 C 552.509 302.529, 556.973 306.209, 559.836 309.028 L 565.041 314.152 569.938 310.052 C 576.391 304.649, 595 285.127, 595 283.761 C 595 281.894, 577.906 266.798, 576.160 267.123 C 575.797 267.191, 568.682 274.119, 560.350 282.519 M 480.500 360.528 L 459.500 380.957 478.509 380.979 L 497.518 381 518 360.500 L 538.482 340 519.991 340.050 L 501.500 340.099 480.500 360.528 M 865.900 477.323 L 847.300 502.500 846.634 518.500 C 846.267 527.300, 845.545 537.408, 845.029 540.963 C 844.514 544.517, 844.213 547.546, 844.361 547.694 C 844.729 548.062, 869.736 516.123, 880.136 502 C 888.591 490.519, 888.604 490.491, 888.300 485 C 887.668 473.581, 885.762 454.454, 885.143 453.323 C 884.772 452.644, 876.622 462.810, 865.900 477.323 M 333.471 490.120 C 323.037 498.926, 313.375 507.234, 312 508.581 C 309.738 510.796, 309.259 512.830, 306.966 529.920 C 304.708 546.748, 304.611 548.685, 306.072 547.656 C 310.381 544.621, 347.181 512.680, 347.542 511.662 C 348.016 510.326, 352.861 474.600, 352.608 474.304 C 352.516 474.196, 343.905 481.313, 333.471 490.120 M 169 624.590 C 159.925 631.502, 152.345 637.587, 152.155 638.113 C 151.966 638.639, 152.566 640.966, 153.489 643.284 C 158.788 656.595, 161.296 662, 162.171 662 C 162.713 662, 170.496 656.393, 179.467 649.540 L 195.779 637.080 191.140 624.562 C 188.588 617.678, 186.275 612.040, 186 612.034 C 185.725 612.029, 178.075 617.679, 169 624.590 M 724 661.872 C 719.325 668.259, 712.237 677.664, 708.250 682.773 C 704.263 687.882, 701 692.273, 701 692.531 C 701 692.789, 708.296 693, 717.212 693 L 733.425 693 735.508 690.388 L 737.590 687.776 735.710 669.638 C 734.676 659.662, 733.531 651.221, 733.165 650.880 C 732.799 650.539, 728.675 655.485, 724 661.872 M 633 819.118 C 627.775 821.291, 618.550 824.678, 612.500 826.643 L 601.500 830.217 585.692 854.718 C 576.998 868.193, 570.031 879.364, 570.209 879.543 C 570.492 879.826, 577.194 878.527, 599.896 873.791 L 605.293 872.665 614.772 858.083 C 627.593 838.360, 634.099 828.686, 639.542 821.250 C 642.059 817.813, 643.754 815.037, 643.309 815.083 C 642.864 815.128, 638.225 816.944, 633 819.118" stroke="none" fill="#ba86fd" fill-rule="evenodd"/><path d="M 620.290 145.756 C 618.205 148.335, 611.888 156.008, 606.250 162.807 C 600.612 169.605, 596.006 175.468, 596.014 175.834 C 596.021 176.200, 601.073 177.989, 607.239 179.808 C 613.405 181.627, 623.478 185.082, 629.624 187.485 L 640.798 191.854 655.649 176.898 C 663.817 168.673, 670.621 161.393, 670.769 160.721 C 671.068 159.366, 651.789 150.863, 634.790 144.853 L 624.080 141.066 620.290 145.756 M 688.738 181.764 C 684.540 186.569, 677.957 193.613, 674.109 197.418 L 667.112 204.335 676.806 209.977 C 688.809 216.962, 696.485 221.900, 705.389 228.363 L 712.279 233.363 715.389 229.827 C 723.850 220.209, 737.357 204.114, 738.136 202.721 C 738.830 201.481, 737.268 199.889, 730.758 195.200 C 722.175 189.018, 708.812 180.274, 700.936 175.686 L 696.372 173.028 688.738 181.764 M 528.964 255.135 C 526.044 258.492, 522.259 262.648, 520.553 264.369 C 510.497 274.517, 495.802 291.247, 497.500 290.614 C 501.473 289.134, 515.708 288.744, 522.510 289.928 C 526.296 290.588, 532.980 292.510, 537.363 294.200 L 545.331 297.273 560.394 282.030 L 575.456 266.788 572.978 264.780 C 568.900 261.476, 556.039 255.405, 547.500 252.753 C 533.597 248.434, 534.943 248.261, 528.964 255.135 M 595 284.794 C 595 285.422, 588.409 292.442, 580.353 300.393 L 565.705 314.849 569.449 320.489 C 572.949 325.761, 578 336.685, 578 338.980 C 578 339.637, 571.146 340.011, 558.750 340.031 L 539.500 340.063 518.782 360.531 L 498.064 381 541.742 381 L 585.419 381 589.827 376.250 C 592.251 373.637, 600.801 364.357, 608.827 355.626 L 623.419 339.753 621.224 331.259 C 618.288 319.902, 612.401 306.825, 605.692 296.759 C 600.147 288.439, 595 282.679, 595 284.794 M 434.977 354.759 C 427.015 362.877, 418.040 372.102, 415.034 375.259 L 409.568 381 434.207 381 L 458.845 381 479.672 360.544 L 500.500 340.087 474.977 340.044 L 449.453 340 434.977 354.759 M 855.514 352.062 C 853.773 357.793, 839.107 385.063, 832.672 394.532 C 830.596 397.588, 830.321 398.714, 831.132 400.848 C 832.969 405.678, 838.903 429.434, 840.913 440 C 844.048 456.486, 845.123 465.166, 846.354 483.973 L 847.500 501.478 864.054 478.989 C 873.159 466.620, 881.662 454.989, 882.949 453.142 L 885.290 449.784 881.614 431.142 C 876.343 404.408, 869.540 381.524, 860.185 359.062 C 856.789 350.908, 856.154 349.955, 855.514 352.062 M 347.409 440.835 C 341.310 446.701, 331.464 456.162, 325.531 461.860 L 314.743 472.220 312.359 489.823 C 311.048 499.505, 310.093 507.771, 310.238 508.192 C 310.472 508.877, 345.193 480.152, 350.735 474.688 C 352.674 472.777, 353.351 469.709, 355.858 451.493 C 357.446 439.947, 358.690 430.426, 358.623 430.335 C 358.555 430.244, 353.509 434.969, 347.409 440.835 M 881.549 501.010 C 877.726 506.229, 868.096 518.825, 860.148 529 C 852.201 539.175, 845.356 547.950, 844.937 548.500 C 844.518 549.050, 843.415 554, 842.487 559.500 C 832.064 621.239, 805.440 678.029, 764.689 725.447 C 760.460 730.368, 757.016 734.643, 757.036 734.947 C 757.056 735.251, 758.099 736.755, 759.355 738.289 L 761.638 741.079 771.569 726.570 C 786.697 704.469, 796.654 688.847, 812.724 662 C 820.789 648.525, 833.915 627.825, 841.893 616 C 874.093 568.269, 883.141 554.323, 885.364 548.989 C 887.015 545.027, 889.361 511.184, 888.828 499.010 L 888.500 491.520 881.549 501.010 M 327 530.568 C 315.725 540.198, 305.964 548.622, 305.309 549.288 C 304.642 549.967, 301.871 567.441, 299.011 589 C 296.202 610.175, 292.838 635.150, 291.535 644.500 C 290.233 653.850, 288.904 663.703, 288.583 666.396 L 287.998 671.292 293.749 665.941 C 296.912 662.999, 305.575 654.890, 313 647.921 C 320.425 640.953, 327.707 634.182, 329.182 632.875 C 331.836 630.526, 331.947 629.885, 339.441 573.500 C 343.608 542.150, 347.196 515.712, 347.415 514.750 C 347.634 513.788, 347.742 513.013, 347.656 513.030 C 347.570 513.046, 338.275 520.938, 327 530.568 M 720.026 570.276 C 719.243 571.499, 712.339 582.850, 704.684 595.500 L 690.766 618.500 692.466 632 C 693.401 639.425, 694.410 646.737, 694.708 648.250 L 695.250 651 682.375 651.005 L 669.500 651.010 664.500 658.230 C 661.750 662.201, 655.348 671.536, 650.273 678.975 L 641.046 692.500 670.273 692.777 L 699.500 693.053 701.810 690.277 C 703.081 688.749, 710.640 678.836, 718.608 668.246 L 733.096 648.991 729.066 619.246 C 726.850 602.886, 724.507 585.225, 723.859 580 C 722.436 568.529, 721.944 567.278, 720.026 570.276 M 170.300 608.061 C 145.861 631.505, 148.086 628.933, 149.241 632.401 C 149.809 634.106, 150.615 635.881, 151.034 636.347 C 151.452 636.813, 159.378 631.445, 168.647 624.418 C 177.916 617.391, 185.648 611.537, 185.829 611.409 C 186.302 611.073, 182.773 599.672, 181.864 598.600 C 181.444 598.105, 176.240 602.362, 170.300 608.061 M 179.451 650.078 C 170.678 656.721, 163.162 662.481, 162.749 662.879 C 160.989 664.573, 179.735 698.473, 193.783 719 C 202.064 731.100, 210.548 742.244, 211.861 742.743 C 212.212 742.877, 214.784 740.852, 217.576 738.243 C 234.046 722.851, 239.630 717.475, 240.701 715.979 C 241.715 714.563, 240.874 712.912, 235.312 705.401 C 222.529 688.135, 210.992 668.861, 202 649.745 C 198.975 643.315, 196.253 638.041, 195.951 638.027 C 195.649 638.012, 188.224 643.435, 179.451 650.078 M 680.407 795.993 C 679.861 796.539, 671.675 800.954, 662.216 805.804 L 645.018 814.621 638.812 823.061 C 633.227 830.655, 607 870.500, 607 871.391 C 607 872.113, 624.769 866.731, 637 862.304 C 657.608 854.844, 684.596 842.410, 689.383 838.169 C 690.419 837.251, 693.119 834.074, 695.383 831.109 C 697.648 828.144, 700.289 824.707, 701.252 823.470 C 702.984 821.249, 702.882 821.070, 692.477 808.111 C 686.686 800.900, 681.825 795, 681.674 795 C 681.523 795, 680.953 795.447, 680.407 795.993 M 593.500 832.104 C 576.480 836.738, 549.338 841.062, 527.915 842.554 L 519.330 843.152 498.924 863.576 C 481.919 880.596, 478.933 884.002, 481.009 884.013 C 482.379 884.020, 490.025 884.303, 498 884.641 C 518.722 885.521, 566.619 881.887, 569.113 879.246 C 570.496 877.781, 601.363 829.921, 600.809 830.099 C 600.639 830.154, 597.350 831.056, 593.500 832.104" stroke="none" fill="#7409ff" fill-rule="evenodd"/><path d="M 330.500 100.907 C 328.850 101.317, 326.540 102.168, 325.367 102.799 C 324.194 103.429, 313.751 115.805, 302.159 130.301 C 278.756 159.568, 277.481 161.871, 279.826 170.639 C 281.503 176.910, 322.264 228.038, 327.224 230.093 C 331.539 231.880, 339.817 231.663, 343.688 229.661 C 345.610 228.668, 354.224 218.743, 365.937 204.027 C 391.177 172.317, 390 174.178, 390 166 C 390 160.386, 389.565 158.639, 387.361 155.391 C 380.696 145.569, 346.511 103.800, 344.148 102.591 C 340.609 100.781, 334.194 99.989, 330.500 100.907 M 325.143 152.535 C 320.065 158.880, 315.688 164.649, 315.417 165.356 C 314.912 166.672, 333.446 191, 334.953 191 C 336.048 191, 355 167.375, 355 166.010 C 355 164.843, 335.901 141, 334.965 141 C 334.641 141, 330.222 146.191, 325.143 152.535 M 239.500 159.907 C 237.850 160.317, 235.542 161.167, 234.371 161.797 C 232.296 162.912, 179.896 228.842, 175.978 235.267 C 174.551 237.609, 174.007 240.292, 174.007 245 C 174.007 251.950, 175.134 254.585, 181.484 262.497 C 191.006 274.362, 216.682 306.925, 223.886 316.273 C 228.478 322.232, 233.598 327.778, 235.344 328.684 C 239.422 330.802, 248.558 330.812, 252.619 328.704 C 254.612 327.669, 265.540 314.610, 282.894 292.525 C 297.830 273.517, 310.938 256.511, 312.022 254.733 C 313.452 252.387, 313.994 249.703, 313.996 244.951 C 314.001 237.118, 313.918 236.978, 296.048 214.301 C 289.200 205.610, 277.323 190.491, 269.656 180.702 C 261.989 170.913, 254.542 162.304, 253.108 161.570 C 249.605 159.779, 243.178 158.993, 239.500 159.907 M 226.250 221.965 C 216.762 234.031, 209 244.408, 209 245.025 C 209 246.592, 243.159 290.117, 244.121 289.777 C 244.552 289.625, 252.816 279.489, 262.486 267.253 L 280.068 245.007 270.784 233.265 C 250.549 207.672, 244.750 200.490, 244.138 200.264 C 243.787 200.134, 235.738 209.900, 226.250 221.965 M 728.500 716.907 C 726.850 717.317, 724.540 718.168, 723.367 718.799 C 722.194 719.429, 711.751 731.805, 700.159 746.301 C 683.499 767.136, 678.822 773.635, 677.835 777.328 C 675.830 784.824, 677.594 789.273, 687.320 801.245 C 691.901 806.885, 701.376 818.813, 708.376 827.751 C 716.037 837.533, 722.377 844.663, 724.302 845.663 C 728.424 847.803, 737.536 847.823, 741.623 845.702 C 745.485 843.696, 786.200 792.962, 787.848 788.101 C 789.272 783.899, 789.212 779.478, 787.674 775.347 C 787.028 773.613, 779.874 763.938, 771.775 753.847 C 763.676 743.756, 754.286 731.997, 750.907 727.715 C 747.528 723.433, 743.580 719.324, 742.132 718.583 C 738.608 716.780, 732.188 715.991, 728.500 716.907 M 730.333 759.376 C 729.325 760.682, 724.765 766.308, 720.200 771.877 L 711.900 782.002 722.080 794.501 C 727.679 801.376, 732.603 807, 733.023 807 C 734.070 807, 753 783.321, 753 782.010 C 753 780.586, 734.202 757, 733.067 757 C 732.572 757, 731.342 758.069, 730.333 759.376" stroke="none" fill="#fbda40" fill-rule="evenodd"/><path d="M 482.500 124.095 C 451.525 126.176, 422.601 131.630, 392.921 140.987 C 383.377 143.996, 380.089 145.432, 380.744 146.305 C 381.238 146.962, 383.274 149.542, 385.268 152.039 C 393.343 162.145, 392.705 170.583, 382.944 182.812 C 379.656 186.930, 377.128 190.461, 377.325 190.658 C 377.522 190.856, 380.938 189.675, 384.916 188.035 C 400.301 181.690, 422.848 175.189, 443.500 171.143 C 466.725 166.592, 479.312 165.510, 508.500 165.551 C 541.190 165.597, 555.242 167.127, 585.912 173.975 C 591.088 175.131, 595.628 175.722, 596.001 175.288 C 597.606 173.421, 616.836 150.048, 620.276 145.782 L 624.052 141.100 617.060 139.018 C 574.250 126.269, 527.438 121.077, 482.500 124.095 M 654.486 178.250 L 641.500 191.500 654.750 178.514 C 667.058 166.452, 668.453 165, 667.736 165 C 667.590 165, 661.628 170.963, 654.486 178.250 M 675.479 195.250 L 666.500 204.500 675.750 195.521 C 684.341 187.181, 685.455 186, 684.729 186 C 684.580 186, 680.418 190.162, 675.479 195.250 M 287.785 193.256 C 285.192 195.040, 283.179 196.874, 283.312 197.332 C 283.445 197.789, 289.122 205.320, 295.928 214.068 L 308.301 229.971 313.196 226.455 C 315.888 224.521, 318.578 223.239, 319.175 223.608 C 319.771 223.976, 314.078 216.565, 306.524 207.139 C 298.970 197.712, 292.725 190.003, 292.645 190.006 C 292.565 190.009, 290.378 191.472, 287.785 193.256 M 737.240 203.988 C 736.557 205.081, 732.736 209.698, 728.749 214.246 C 724.762 218.795, 719.506 224.941, 717.068 227.904 L 712.636 233.290 715.164 235.395 C 748.479 263.141, 767.722 283.480, 787.167 311.500 C 803.043 334.378, 820.416 368.606, 828.446 392.826 L 830.212 398.153 832.705 394.483 C 840.108 383.588, 854.653 356.113, 855.546 351.335 C 855.954 349.155, 854.356 345.098, 848.635 333.780 C 823.481 284.019, 787.847 240.060, 744.832 205.726 C 739.442 201.424, 738.916 201.304, 737.240 203.988 M 496.500 248.056 C 451.876 254.085, 414.412 287.154, 402.900 330.673 L 400.738 338.846 371.119 339.173 C 344.883 339.463, 341.124 339.705, 338.206 341.299 C 333.488 343.874, 331.483 347.853, 330.165 357.250 C 324.250 399.447, 315.018 470.351, 315.391 470.724 C 315.831 471.164, 324.252 463.266, 348.680 439.500 L 358.959 429.500 361.980 406.565 C 363.641 393.951, 365 383.038, 365 382.315 C 365 381.268, 369.519 381, 387.191 381 L 409.383 381 429.069 360.750 C 441.296 348.173, 448.201 340.371, 447.292 340.160 C 445.414 339.724, 446.162 336.577, 450.124 328.256 C 457.619 312.513, 472.690 299.102, 489.788 292.963 C 495.545 290.895, 497.020 289.684, 507.269 278.602 C 513.425 271.946, 520.788 264.025, 523.630 261 C 526.473 257.975, 529.965 254.089, 531.391 252.365 L 533.984 249.230 531.242 248.637 C 525.964 247.496, 503.436 247.119, 496.500 248.056 M 560.980 281.750 L 551.500 291.500 561.250 282.020 C 566.612 276.806, 571 272.418, 571 272.270 C 571 271.545, 569.785 272.694, 560.980 281.750 M 193.052 289.815 C 157.396 343.399, 136.856 399.125, 129.402 462.500 C 126.962 483.251, 126.937 524.971, 129.353 545 C 132.600 571.915, 137.992 597.464, 145.128 619.740 L 148.164 629.217 151.182 626.359 C 154.867 622.867, 158.567 619.333, 171.668 606.790 L 181.810 597.079 179.412 587.790 C 176.430 576.234, 172.490 554.854, 170.789 541 C 168.826 525.013, 169.186 478.761, 171.400 462.500 C 177.004 421.333, 187.441 387.028, 205.048 351.904 C 213.231 335.579, 223.955 317.854, 225.187 318.616 C 225.990 319.112, 200.447 286.234, 198.151 283.815 C 197.793 283.438, 195.498 286.138, 193.052 289.815 M 611.710 352.273 C 605.225 359.548, 596.734 368.875, 592.840 373 L 585.759 380.500 622.380 380.762 C 650.679 380.965, 658.998 381.306, 658.992 382.262 C 658.988 382.943, 662.831 412.075, 667.533 447 C 672.234 481.925, 679.344 534.734, 683.333 564.353 C 688.688 604.120, 690.868 617.852, 691.668 616.853 C 692.264 616.109, 697.582 607.400, 703.485 597.500 C 709.388 587.600, 715.990 576.736, 718.156 573.359 L 722.094 567.217 709.487 473.859 C 702.554 422.511, 696.218 375.208, 695.408 368.740 C 692.708 347.171, 691.796 344.580, 685.741 341.271 C 682.877 339.706, 679.068 339.474, 653 339.273 L 623.500 339.045 611.710 352.273 M 488.500 352 C 481.917 358.600, 476.756 364, 477.031 364 C 477.306 364, 482.917 358.600, 489.500 352 C 496.083 345.400, 501.244 340, 500.969 340 C 500.694 340, 495.083 345.400, 488.500 352 M 520.490 358.250 L 502.500 376.500 520.750 358.510 C 530.788 348.616, 539 340.404, 539 340.260 C 539 339.548, 537.203 341.294, 520.490 358.250 M 885 549.823 C 885 551.461, 870.817 573.225, 842.850 614.500 C 835.396 625.500, 823.101 644.850, 815.526 657.500 C 799.132 684.878, 785.536 706.253, 771.963 725.984 C 766.483 733.950, 762.002 740.700, 762.004 740.984 C 762.011 741.831, 781.897 766.466, 782.823 766.774 C 783.858 767.119, 800.119 748.738, 809.163 737 C 850.381 683.502, 876.812 620.222, 885.497 554.250 C 885.877 551.362, 885.920 549, 885.594 549 C 885.267 549, 885 549.370, 885 549.823 M 322.871 638.747 C 318.220 643.011, 311.059 649.677, 306.957 653.560 C 302.856 657.443, 296.962 662.974, 293.860 665.851 C 288.648 670.685, 288.174 671.496, 287.610 676.541 C 287.275 679.543, 286.723 684.475, 286.385 687.500 L 285.770 693 463.222 693 L 640.674 693 645.587 685.776 C 648.289 681.802, 654.663 672.549, 659.750 665.213 C 664.837 657.877, 669 651.678, 669 651.437 C 669 651.197, 592.500 651, 499 651 C 405.500 651, 329.010 650.663, 329.022 650.250 C 329.033 649.837, 329.658 645.450, 330.410 640.500 C 331.162 635.550, 331.676 631.386, 331.552 631.247 C 331.428 631.107, 327.522 634.482, 322.871 638.747 M 238.996 717.789 C 237.619 719.280, 230.945 725.731, 224.165 732.124 L 211.838 743.748 219.092 752.124 C 271.230 812.325, 339.840 854.628, 415.947 873.500 C 435.736 878.407, 454.435 881.490, 475.214 883.272 C 478.835 883.582, 479.432 883.085, 499.049 863.451 L 519.171 843.311 498.335 842.679 C 433.726 840.720, 375.800 822.559, 322 787.394 C 296.167 770.509, 268.987 746.638, 250.742 724.810 C 246.232 719.414, 242.308 715.018, 242.021 715.039 C 241.734 715.060, 240.373 716.298, 238.996 717.789 M 698.480 827.144 C 696.291 829.974, 693.150 833.894, 691.500 835.855 L 688.500 839.422 694.500 836.064 C 697.800 834.216, 702.206 831.629, 704.291 830.314 L 708.082 827.923 705.973 824.962 C 704.813 823.333, 703.548 822, 703.162 822 C 702.776 822, 700.669 824.315, 698.480 827.144" stroke="none" fill="#b550fb" fill-rule="evenodd"/></svg>