<svg xmlns="http://www.w3.org/2000/svg" width="1000" height="1000" viewBox="0 0 1000 1000" version="1.1"><path d="M 492.497 123.673 C 491.277 123.918, 489.798 125.722, 488.715 128.287 C 486.183 134.281, 483.227 137.275, 473.268 143.926 C 468.445 147.147, 462.250 152.117, 459.500 154.971 C 456.750 157.824, 451.575 162.454, 448 165.259 C 444.425 168.064, 441.116 170.685, 440.646 171.083 C 440.177 171.481, 442.877 171.223, 446.646 170.508 C 467.529 166.550, 480.493 165.511, 508.500 165.551 C 529.487 165.581, 539.631 166.027, 549 167.333 C 580.313 171.697, 604.982 177.869, 629.711 187.525 L 640.922 191.903 653.211 186.341 C 659.970 183.283, 665.950 180.439, 666.500 180.023 C 668.986 178.141, 679.474 174.999, 683.288 174.994 C 688.547 174.987, 695.533 173.115, 694.370 172.024 C 692.289 170.073, 671.311 159.651, 658 153.956 C 625.434 140.021, 588.961 130.183, 554.500 126.036 C 534.540 123.634, 499.385 122.294, 492.497 123.673 M 455.500 126.696 C 429.474 130.133, 378.921 143.367, 380.646 146.291 C 381.038 146.956, 382.793 149.300, 384.547 151.500 C 389.360 157.538, 390.333 159.976, 390.333 166 C 390.333 172.407, 389.499 174.238, 382.606 182.961 C 379.798 186.514, 378.175 189.010, 379 188.506 C 386.404 183.986, 415.447 164.670, 422.936 159.285 C 428.126 155.553, 436.901 148.214, 442.436 142.976 C 447.971 137.738, 454.863 131.953, 457.750 130.122 C 460.637 128.290, 463 126.613, 463 126.396 C 463 125.964, 460.190 126.076, 455.500 126.696 M 287.782 193.256 C 285.187 195.040, 283.050 196.819, 283.032 197.208 C 283.015 197.597, 286.145 201.872, 289.988 206.708 C 293.832 211.544, 299.313 218.442, 302.169 222.038 L 307.361 228.575 312.431 225.928 C 315.345 224.406, 317.450 222.635, 317.381 221.762 C 317.287 220.558, 293.540 189.983, 292.717 190.006 C 292.597 190.009, 290.377 191.472, 287.782 193.256 M 735.645 219.896 C 729.515 225.889, 723.038 232.004, 721.250 233.485 C 719.462 234.966, 718 236.503, 718 236.901 C 718 237.298, 723.009 241.871, 729.132 247.062 C 735.255 252.253, 745.585 262.036, 752.089 268.802 L 763.914 281.103 773.734 271.802 C 779.135 266.686, 785.919 260.330, 788.810 257.679 L 794.067 252.857 790.123 248.179 C 781.465 237.906, 750.409 209, 748.032 209 C 747.348 209, 741.774 213.903, 735.645 219.896 M 488.105 249.546 C 474.622 252.471, 456.235 260.220, 449 266.027 L 446.500 268.033 449.500 266.959 C 454.708 265.095, 495.481 248.773, 495.917 248.378 C 496.542 247.811, 495.131 248.022, 488.105 249.546 M 793.121 281.383 C 786.072 288.194, 779.317 294.295, 778.110 294.941 L 775.917 296.115 777.970 298.807 C 787.573 311.405, 799.089 329.285, 806.217 342.667 L 810.568 350.834 813.034 348.877 C 814.390 347.800, 819.325 344.361, 824 341.235 C 828.675 338.109, 835.277 333.476, 838.672 330.941 L 844.844 326.331 841.032 319.306 C 832.039 302.732, 809.168 269, 806.924 269 C 806.381 269, 800.170 274.573, 793.121 281.383 M 195.956 288.227 C 193.216 289.319, 192.001 290.971, 182.176 306.956 C 169.672 327.301, 156.484 355.200, 148.422 378.363 C 144.287 390.243, 137.800 412.927, 138.211 414.070 C 138.461 414.767, 141.758 413.053, 157.500 404.040 C 159.150 403.095, 167.042 398.887, 175.038 394.688 L 189.576 387.055 193.929 376.277 C 199.564 362.323, 209.495 342.479, 217.585 329.007 C 221.113 323.131, 224 317.891, 224 317.362 C 224 316.833, 221.859 313.722, 219.242 310.450 C 216.626 307.177, 211.426 300.563, 207.688 295.750 C 203.950 290.938, 200.353 287.048, 199.696 287.106 C 199.038 287.165, 197.355 287.669, 195.956 288.227 M 616.470 328.250 C 614.981 330.038, 602.973 342.637, 589.786 356.250 L 565.810 381 610.855 381 L 655.900 381 659.700 376.451 C 661.790 373.949, 669.678 366.946, 677.230 360.888 C 684.781 354.831, 691.232 349.433, 691.566 348.893 C 692.503 347.377, 689.339 343.237, 685.741 341.271 C 682.889 339.713, 678.939 339.461, 652.839 339.173 L 623.177 338.845 621.481 331.923 C 620.548 328.115, 619.648 325, 619.481 325 C 619.314 325, 617.959 326.462, 616.470 328.250 M 687.500 378.289 C 678.763 385.223, 665.737 398.675, 663.419 403.156 C 662.092 405.723, 662.386 409.168, 666.632 440.741 C 669.202 459.858, 671.660 475.901, 672.093 476.390 C 672.786 477.174, 696.019 456.974, 703.187 449.356 L 705.874 446.500 700.969 410.536 C 698.271 390.756, 695.937 373.981, 695.782 373.257 C 695.609 372.450, 692.403 374.398, 687.500 378.289 M 881.399 490.285 C 878.087 492.723, 873.622 497.144, 871.476 500.109 C 869.331 503.074, 862.793 510.994, 856.947 517.709 L 846.319 529.919 845.117 540.209 C 836.886 610.695, 809.906 672.832, 764.689 725.447 C 760.460 730.368, 757.001 734.643, 757.003 734.947 C 757.009 735.937, 782.161 767, 782.957 767 C 784.023 767, 801.194 747.343, 809.163 737 C 861.396 669.206, 889.322 586.566, 888.914 501 C 888.838 484.913, 888.789 484.845, 881.399 490.285 M 339 546.144 C 337.075 547.323, 328.075 552.087, 319 556.732 C 309.925 561.377, 302.421 565.253, 302.325 565.347 C 302.229 565.440, 300.294 579.463, 298.026 596.508 C 295.757 613.554, 292.823 635.150, 291.506 644.500 C 288.552 665.463, 286.664 683.092, 287.141 685.264 C 287.441 686.630, 289.505 686.009, 299.706 681.480 C 306.419 678.499, 319.019 673.315, 327.706 669.960 C 336.393 666.604, 349.677 661.078, 357.226 657.679 L 370.953 651.500 349.869 651.230 L 328.785 650.960 329.363 647.730 C 330.854 639.404, 343.035 546.441, 342.784 545.298 C 342.576 544.345, 341.570 544.570, 339 546.144 M 187.450 619.838 C 185.872 621.231, 169.075 628.676, 159.750 632.116 C 154.938 633.891, 151 635.707, 151 636.152 C 151 637.739, 158.924 656.811, 164.255 668.055 C 173.053 686.609, 194.405 722.278, 198.071 724.544 C 198.686 724.924, 207.884 721.527, 218.511 716.995 L 237.833 708.755 232.586 701.628 C 218.058 681.894, 201.490 651.636, 192.477 628.374 C 190.479 623.218, 188.745 619, 188.622 619 C 188.500 619, 187.972 619.377, 187.450 619.838 M 387.500 664.926 C 372.650 672.435, 352.400 681.824, 342.500 685.792 L 324.500 693.005 334.500 692.743 L 344.500 692.481 355.500 686.369 C 367.720 679.579, 376.385 674.968, 399.701 662.847 C 408.390 658.330, 416.850 653.818, 418.500 652.821 L 421.500 651.007 418 651.141 C 415.673 651.230, 405.453 655.849, 387.500 664.926 M 724.814 664.214 C 720.168 669.321, 715.328 675.075, 714.059 677 C 712.790 678.925, 708.770 683.295, 705.126 686.711 L 698.500 692.921 718.250 692.961 C 733.414 692.991, 737.995 692.710, 737.980 691.750 C 737.923 688.117, 734.162 655.829, 733.748 655.415 C 733.480 655.147, 729.460 659.106, 724.814 664.214 M 244.257 727.726 C 240.823 729.168, 238.200 730.533, 238.428 730.761 C 239.209 731.542, 251.960 726.744, 251.421 725.872 C 251.124 725.392, 250.796 725.023, 250.691 725.052 C 250.586 725.081, 247.691 726.284, 244.257 727.726 M 677.500 797.701 C 668.208 803.238, 645.512 814.141, 632.500 819.318 C 598.719 832.757, 562.315 840.691, 526 842.529 C 512.101 843.233, 511.100 843.557, 497.689 851.689 C 492.782 854.664, 484.207 859.379, 478.633 862.166 C 473.060 864.954, 464.153 869.881, 458.840 873.117 C 453.527 876.353, 448.615 879, 447.923 879 C 444.697 879, 448.431 880.212, 454.144 881.019 C 507.547 888.563, 563.856 884.504, 615.339 869.401 C 644.117 860.958, 672.825 848.607, 699.250 833.300 C 703.512 830.831, 707.222 828.450, 707.494 828.009 C 707.952 827.268, 684.092 796.715, 682.301 795.749 C 681.860 795.511, 679.700 796.389, 677.500 797.701" stroke="none" fill="#ff731e" fill-rule="evenodd"/><path d="M 470.972 124.954 C 462.782 125.795, 455.749 130.268, 441.954 143.407 C 431.049 153.795, 421.010 161.213, 395.500 177.736 C 385.600 184.148, 377.312 189.530, 377.083 189.697 C 376.854 189.864, 376.878 190.211, 377.135 190.469 C 377.393 190.726, 382.080 189.183, 387.552 187.040 C 399.583 182.327, 418.139 176.642, 430.420 173.906 C 440.789 171.597, 445.137 168.814, 458.500 155.932 C 462.900 151.690, 469.768 146.121, 473.761 143.554 C 477.755 140.988, 482.173 137.676, 483.579 136.194 C 486.232 133.398, 490 126.853, 490 125.040 C 490 123.900, 481.605 123.863, 470.972 124.954 M 787.850 258.570 C 784.358 261.743, 777.539 268.126, 772.697 272.754 C 765.011 280.101, 764.058 281.380, 765.182 282.834 C 765.889 283.750, 768.486 286.975, 770.953 290 C 773.419 293.025, 775.562 295.686, 775.714 295.913 C 776.339 296.841, 783.448 290.842, 794.872 279.748 L 806.974 267.996 801.336 261.248 C 798.235 257.537, 795.361 254.118, 794.949 253.650 C 794.537 253.183, 791.343 255.396, 787.850 258.570 M 195.580 286.190 C 193.601 289.014, 194.015 289.318, 197.722 287.759 C 200.199 286.717, 200.506 286.262, 199.416 285.244 C 197.633 283.578, 197.362 283.645, 195.580 286.190 M 677.623 360.446 C 663.553 371.913, 654.567 381, 657.299 381 C 658.390 381, 659.052 383.435, 659.951 390.750 C 660.610 396.113, 661.396 401.540, 661.698 402.811 C 662.238 405.080, 662.281 405.067, 664.102 402.073 C 667.113 397.121, 680.664 383.469, 688.604 377.387 C 694.410 372.941, 695.885 371.293, 695.557 369.621 C 695.327 368.455, 694.593 363.337, 693.925 358.250 C 693.257 353.163, 692.438 349.031, 692.105 349.069 C 691.772 349.107, 685.256 354.227, 677.623 360.446 M 359.500 656.628 C 352.900 659.675, 340.075 665.063, 331 668.602 C 321.925 672.141, 308.087 677.837, 300.250 681.259 C 286.863 687.105, 286 687.649, 286 690.241 L 286 693 304.973 693 L 323.945 693 340.723 686.405 C 356.574 680.174, 397.008 661.094, 409 654.187 L 414.500 651.019 393 651.054 L 371.500 651.088 359.500 656.628 M 217.332 717.398 L 198.164 725.648 202.332 731.137 C 204.624 734.156, 207.386 737.763, 208.468 739.152 L 210.436 741.679 228.468 734.255 C 238.386 730.172, 247.287 726.592, 248.250 726.299 C 249.213 726.006, 250 725.362, 250 724.868 C 250 723.747, 237.939 708.973, 237.107 709.074 C 236.773 709.115, 227.874 712.861, 217.332 717.398" stroke="none" fill="#ff9f65" fill-rule="evenodd"/><path d="M 324.661 153.549 L 314.822 166 324.661 178.451 C 330.072 185.300, 334.725 190.903, 335 190.903 C 335.275 190.903, 339.928 185.300, 345.339 178.451 L 355.178 166 345.339 153.549 C 339.928 146.700, 335.275 141.097, 335 141.097 C 334.725 141.097, 330.072 146.700, 324.661 153.549 M 226.378 222.463 C 217.095 234.268, 209.500 244.410, 209.500 245 C 209.500 246.321, 242.964 289, 244 289 C 245.036 289, 278.500 246.321, 278.500 245 C 278.500 243.679, 245.036 201, 244 201 C 243.591 201, 235.661 210.658, 226.378 222.463 M 722.661 769.549 L 712.822 782 722.661 794.451 C 728.072 801.300, 732.725 806.903, 733 806.903 C 733.275 806.903, 737.928 801.300, 743.339 794.451 L 753.178 782 743.339 769.549 C 737.928 762.700, 733.275 757.097, 733 757.097 C 732.725 757.097, 728.072 762.700, 722.661 769.549" stroke="none" fill="#ffffff" fill-rule="evenodd"/><path d="M 329.158 101.918 C 326.220 102.928, 323.240 104.372, 322.535 105.127 C 321.831 105.882, 312.244 117.814, 301.231 131.642 C 272.350 167.907, 272.299 163.971, 302.136 201.288 C 324.469 229.221, 326.748 231.300, 334.976 231.252 C 343.643 231.202, 345.354 229.655, 367.405 201.951 C 378.754 187.693, 388.480 174.867, 389.019 173.449 C 390.281 170.130, 390.281 161.870, 389.019 158.551 C 388.480 157.133, 378.742 144.291, 367.378 130.015 C 349.266 107.259, 346.210 103.876, 342.609 102.584 C 335.611 100.074, 334.657 100.027, 329.158 101.918 M 324.607 152.969 C 319.323 159.551, 315 165.420, 315 166.009 C 315 167.141, 334.142 191.924, 335 191.903 C 335.275 191.896, 340.122 186.065, 345.772 178.945 L 356.044 165.999 345.882 153.500 C 340.292 146.625, 335.380 141, 334.967 141 C 334.553 141, 329.891 146.386, 324.607 152.969 M 238.158 160.918 C 235.220 161.928, 232.250 163.372, 231.557 164.127 C 227.928 168.079, 178.542 231.662, 176.777 234.653 C 174.191 239.037, 173.903 249.978, 176.255 254.526 C 177.621 257.169, 223.790 316.500, 230.815 324.641 C 232.561 326.664, 235.388 328.335, 238.762 329.337 C 243.401 330.714, 244.561 330.726, 248.901 329.437 C 251.596 328.636, 254.689 327.198, 255.775 326.241 C 258.480 323.854, 308.647 259.712, 311.223 255.347 C 314.299 250.133, 314.136 239.531, 310.897 234.232 C 309.579 232.075, 296.607 215.172, 282.072 196.670 C 258.580 166.767, 255.191 162.867, 251.572 161.570 C 244.614 159.076, 243.651 159.029, 238.158 160.918 M 226.421 221.509 C 217.114 233.339, 209.349 243.717, 209.165 244.572 C 208.980 245.426, 210.492 248.234, 212.525 250.812 C 214.558 253.390, 222.284 263.262, 229.693 272.750 C 237.103 282.238, 243.502 290, 243.914 290 C 244.325 290, 248.650 284.938, 253.524 278.750 C 258.399 272.563, 266.384 262.447, 271.267 256.272 L 280.146 245.044 262.396 222.522 C 252.633 210.135, 244.353 200, 243.994 200 C 243.635 200, 235.727 209.679, 226.421 221.509 M 727.158 717.933 C 724.220 718.935, 721.240 720.372, 720.535 721.127 C 719.831 721.882, 710.244 733.814, 699.231 747.642 C 670.393 783.854, 670.320 779.836, 700.503 817.743 C 719.103 841.104, 721.879 844.170, 725.780 845.660 C 731.311 847.773, 734.695 847.770, 740.246 845.650 C 744.172 844.151, 746.929 841.119, 765.500 817.880 C 795.781 779.988, 795.755 784.254, 765.930 746.785 C 744.603 719.993, 743.087 718.517, 735 716.680 C 733.625 716.368, 730.096 716.932, 727.158 717.933 M 722.057 769.478 L 711.921 781.957 722.211 794.924 C 727.870 802.056, 732.725 807.891, 733 807.891 C 733.275 807.891, 738.126 802.061, 743.781 794.934 L 754.062 781.978 743.991 769.489 C 738.452 762.620, 733.532 757, 733.056 757 C 732.581 757, 727.631 762.615, 722.057 769.478" stroke="none" fill="#fcda40" fill-rule="evenodd"/><path d="M 691 174 C 689.625 174.440, 686.419 174.845, 683.876 174.900 C 678.345 175.020, 674.556 176.290, 662 182.235 C 656.775 184.709, 650.138 187.748, 647.250 188.990 C 644.362 190.231, 642.010 191.528, 642.022 191.873 C 642.034 192.218, 646.857 194.750, 652.739 197.500 C 672.438 206.708, 693.364 219.221, 710.335 231.937 L 717.169 237.058 720.835 233.892 C 722.851 232.150, 729.769 225.612, 736.210 219.362 L 747.920 207.998 735.485 198.749 C 720.757 187.794, 697.408 172.959, 695.118 173.100 C 694.228 173.155, 692.375 173.560, 691 174 M 499.500 247.948 C 497.300 248.331, 483.954 253.267, 469.843 258.917 C 447.115 268.015, 443.495 269.777, 438.141 274.344 C 421.498 288.540, 408.585 309.180, 402.900 330.673 L 400.738 338.846 371.119 339.173 C 338.444 339.534, 336.910 339.811, 333.117 346.048 C 331.064 349.424, 331.824 344.400, 319.954 433 C 314.980 470.125, 308.956 514.900, 306.567 532.500 C 304.178 550.100, 302.338 564.627, 302.478 564.782 C 302.826 565.170, 334.929 548.701, 339.724 545.674 L 343.596 543.230 345.888 525.865 C 347.149 516.314, 351.965 480.438, 356.590 446.140 C 361.216 411.843, 365 383.155, 365 382.390 C 365 381.212, 380.318 381, 465.263 381 L 565.527 381 579.070 367.250 C 606.357 339.546, 619 325.920, 618.985 324.230 C 618.976 323.278, 617.214 318.557, 615.068 313.737 C 601.734 283.784, 575.120 260.530, 544 251.640 C 529.894 247.610, 510.611 246.010, 499.500 247.948 M 498.500 290.401 C 482.068 294.167, 468.714 302.553, 458.114 315.761 C 453.193 321.891, 447.822 331.803, 446.467 337.250 L 445.783 340 512 340 L 578.217 340 577.533 337.250 C 574.165 323.706, 560.053 306.430, 545.500 298.032 C 532.378 290.460, 512.396 287.216, 498.500 290.401 M 839 330.609 C 836.525 332.520, 830.225 336.969, 825 340.497 C 819.775 344.024, 814.399 347.787, 813.053 348.858 L 810.607 350.805 815.225 360.653 C 830.785 393.832, 840.233 427.407, 845.152 467 C 845.918 473.160, 846.466 488.330, 846.478 503.699 C 846.490 518.109, 846.760 529.584, 847.079 529.199 C 847.397 528.815, 852.135 523.325, 857.608 517 C 863.082 510.675, 869.465 502.924, 871.794 499.775 C 874.122 496.626, 878.721 492.150, 882.014 489.828 C 887.956 485.638, 888 485.570, 888 480.650 C 888 457.878, 878.241 408.976, 867.603 378.444 C 860.869 359.115, 846.419 326.944, 844.527 327.067 C 843.962 327.104, 841.475 328.697, 839 330.609 M 178 393.101 C 172.775 395.886, 165.575 399.717, 162 401.615 C 158.425 403.513, 151.450 407.413, 146.500 410.283 L 137.500 415.500 134.361 431.308 C 129.233 457.134, 127.582 475.001, 127.598 504.500 C 127.622 547.318, 132.666 579.887, 145.659 621.123 L 150.267 635.747 159.383 632.302 C 168.991 628.671, 185.689 621.276, 187.668 619.776 C 188.534 619.120, 188.105 616.728, 186.015 610.544 C 179.644 591.696, 173.686 564.475, 170.794 541 C 168.826 525.028, 169.183 478.786, 171.400 462.500 C 174.508 439.667, 180.363 413.831, 186.453 396.075 C 187.854 391.991, 189 388.504, 189 388.325 C 189 387.460, 186.759 388.434, 178 393.101 M 700.708 451.773 C 698.138 454.373, 690.660 461.225, 684.090 467 C 677.520 472.775, 672.112 478.121, 672.072 478.881 C 671.998 480.301, 693.597 641.917, 694.641 647.750 L 695.223 651 558.483 651 L 421.743 651 416.622 653.870 C 413.805 655.448, 405.200 660.013, 397.500 664.014 C 377.507 674.404, 367.955 679.462, 356 685.993 C 350.225 689.148, 344.825 691.979, 344 692.285 C 343.175 692.592, 422.520 692.878, 520.323 692.921 L 698.146 693 704.635 687.268 C 708.204 684.115, 712.094 679.952, 713.280 678.018 C 714.465 676.083, 719.606 669.924, 724.703 664.330 L 733.971 654.161 732.514 644.330 C 731.712 638.924, 728.772 617.400, 725.981 596.500 C 713.682 504.401, 705.952 447.619, 705.677 447.343 C 705.513 447.180, 703.277 449.173, 700.708 451.773 M 238 731.401 C 224.947 735.912, 213.042 740.674, 211.737 741.906 C 210.815 742.776, 223.765 757.993, 236.352 770.830 C 284.778 820.221, 347.809 856.441, 414.407 873.147 C 432.985 877.807, 445.760 880.042, 448.289 879.075 C 449.505 878.610, 454.325 875.877, 459 873.002 C 463.675 870.127, 472.282 865.374, 478.126 862.441 C 483.971 859.507, 492.950 854.562, 498.080 851.451 C 503.210 848.341, 508.553 845.304, 509.954 844.702 C 512.006 843.821, 509.373 843.469, 496.371 842.886 C 405.492 838.812, 324.276 802.395, 262.819 738.163 C 256.944 732.024, 251.769 727.018, 251.319 727.040 C 250.868 727.063, 244.875 729.025, 238 731.401" stroke="none" fill="#d9330e" fill-rule="evenodd"/></svg>