<svg xmlns="http://www.w3.org/2000/svg" width="1000" height="1000" viewBox="0 0 1000 1000" version="1.1"><path d="M 324.661 153.549 L 314.822 166 324.661 178.451 C 330.072 185.300, 334.725 190.903, 335 190.903 C 335.275 190.903, 339.928 185.300, 345.339 178.451 L 355.178 166 345.339 153.549 C 339.928 146.700, 335.275 141.097, 335 141.097 C 334.725 141.097, 330.072 146.700, 324.661 153.549 M 226.378 222.463 C 217.095 234.268, 209.500 244.410, 209.500 245 C 209.500 246.321, 242.964 289, 244 289 C 245.036 289, 278.500 246.321, 278.500 245 C 278.500 243.679, 245.036 201, 244 201 C 243.591 201, 235.661 210.658, 226.378 222.463 M 722.661 769.549 L 712.822 782 722.661 794.451 C 728.072 801.300, 732.725 806.903, 733 806.903 C 733.275 806.903, 737.928 801.300, 743.339 794.451 L 753.178 782 743.339 769.549 C 737.928 762.700, 733.275 757.097, 733 757.097 C 732.725 757.097, 728.072 762.700, 722.661 769.549" stroke="none" fill="#ffffff" fill-rule="evenodd"/><path d="M 328.686 100.958 C 327.138 101.455, 325.150 102.455, 324.267 103.181 C 321.380 105.553, 282.589 154.409, 280.771 157.961 C 278.499 162.403, 278.506 169.620, 280.787 174.039 C 283.326 178.955, 322.833 227.844, 325.881 229.841 C 329.502 232.214, 340.658 232.109, 344.384 229.668 C 348.373 227.054, 388.236 176.631, 389.820 172.196 C 391.203 168.321, 390.938 162.233, 389.200 158 C 387.725 154.407, 347.621 104.453, 344.647 102.504 C 341.684 100.563, 332.646 99.688, 328.686 100.958 M 325.007 152.983 C 319.785 159.570, 315.395 165.315, 315.250 165.750 C 314.876 166.872, 333.701 190.500, 334.968 190.500 C 336.059 190.500, 355 167.316, 355 165.981 C 355 165.129, 336.129 141.640, 335.134 141.254 C 334.785 141.118, 330.228 146.396, 325.007 152.983 M 237.475 160.002 C 235.811 160.518, 233.067 162.416, 231.376 164.220 C 228.386 167.411, 179.114 230.031, 175.706 234.973 C 174.459 236.779, 174 239.522, 174 245.163 L 174 252.880 179.205 259.690 C 182.068 263.436, 191.181 275.029, 199.455 285.454 C 207.730 295.878, 218.325 309.338, 223 315.364 C 234.040 329.594, 235.296 330.500, 244 330.500 C 249.391 330.500, 251.456 330.053, 253.677 328.405 C 256.117 326.595, 290.237 284.072, 308.037 260.657 L 314 252.813 314 245.128 C 314 236.088, 316.485 240.112, 290.046 206.345 C 259.400 167.205, 256.040 163.072, 253.523 161.423 C 250.628 159.526, 241.591 158.726, 237.475 160.002 M 239.709 205.250 C 226.567 221.557, 209 244.288, 209 244.988 C 209 246.231, 242.978 289.500, 243.954 289.500 C 244.735 289.500, 274.099 252.831, 277.615 247.465 C 279.114 245.178, 279.100 244.802, 277.430 242.252 C 273.805 236.721, 244.873 201, 244.017 201 C 243.531 201, 241.593 202.912, 239.709 205.250 M 726.686 716.958 C 725.138 717.455, 723.150 718.455, 722.267 719.181 C 719.380 721.553, 680.589 770.409, 678.771 773.961 C 676.292 778.806, 676.492 785.787, 679.250 790.667 C 682.652 796.688, 720.608 843.697, 723.706 845.727 C 727.445 848.177, 738.553 848.178, 742.290 845.730 C 745.464 843.650, 784.637 795.104, 787.229 790.039 C 789.708 785.194, 789.508 778.213, 786.750 773.333 C 783.528 767.631, 745.472 720.356, 742.577 718.459 C 739.673 716.556, 730.608 715.700, 726.686 716.958 M 723.231 768.472 C 718.133 774.777, 713.728 780.546, 713.442 781.291 C 712.882 782.750, 731.307 806.500, 733 806.500 C 734.641 806.500, 753.125 782.769, 752.584 781.358 C 751.923 779.636, 733.778 756.999, 733.062 757.004 C 732.753 757.006, 728.329 762.166, 723.231 768.472" stroke="none" fill="#fbd31b" fill-rule="evenodd"/><path d="M 482.500 124.095 C 451.677 126.166, 421.990 131.755, 393.059 140.935 C 386.217 143.106, 380.142 144.589, 379.559 144.230 C 378.977 143.872, 380.845 146.528, 383.712 150.133 C 393.458 162.391, 393.283 169.859, 382.944 182.812 C 379.656 186.930, 377.128 190.461, 377.325 190.658 C 377.522 190.856, 380.938 189.675, 384.916 188.035 C 406.984 178.935, 436.500 171.496, 467 167.347 C 485.625 164.814, 530.871 164.806, 549 167.333 C 592.102 173.340, 625.129 183.432, 661 201.554 C 694.169 218.312, 721.070 237.901, 748.034 264.931 C 796.275 313.289, 827.524 372.060, 840.854 439.500 C 845.355 462.275, 846.392 474.329, 846.402 504 C 846.413 537.124, 844.928 550.998, 838.103 581.560 C 827.076 630.936, 799.776 684.785, 765.765 724.244 C 762.319 728.242, 758.891 732.287, 758.146 733.234 C 756.944 734.762, 758.222 736.747, 769.575 750.977 C 776.605 759.790, 782.666 767, 783.043 767 C 784.039 767, 801.507 746.937, 809.163 737 C 899.342 619.954, 914.151 461.998, 847.225 331 C 777.892 195.290, 634.407 113.893, 482.500 124.095 M 289.729 191.999 C 288.283 193.136, 286.010 194.632, 284.678 195.323 C 282.261 196.577, 282.275 196.601, 294.709 212.539 C 301.558 221.318, 307.462 228.807, 307.831 229.182 C 308.199 229.558, 310.816 228.205, 313.646 226.176 L 318.793 222.486 306.824 207.493 C 291.337 188.092, 292.897 189.506, 289.729 191.999 M 494.729 277.512 C 471.488 281.419, 451.804 291.531, 435.196 308.096 C 392.385 350.794, 392.362 419.120, 435.144 461.901 C 449.230 475.987, 465.646 485.332, 485.830 490.753 C 494.396 493.054, 497.384 493.350, 512 493.350 C 526.616 493.350, 529.604 493.054, 538.170 490.753 C 558.354 485.332, 574.770 475.987, 588.856 461.901 C 631.638 419.120, 631.615 350.794, 588.804 308.096 C 563.892 283.250, 528.683 271.803, 494.729 277.512 M 193.052 289.835 C 157.530 343.052, 136.854 399.142, 129.402 462.500 C 126.962 483.251, 126.937 524.971, 129.353 545 C 136.036 600.401, 151.458 647.851, 177.455 693 C 216.203 760.294, 272.543 812.838, 342.557 846.980 C 433.695 891.422, 542.724 896.891, 638.411 861.821 C 659.367 854.140, 685.379 841.832, 701.653 831.897 C 705.038 829.830, 708.183 828.446, 708.643 828.820 C 709.605 829.603, 710.114 830.254, 694.148 810.281 L 681.983 795.062 676.779 798.130 C 666.720 804.062, 646.356 813.806, 632.500 819.318 C 605.696 829.981, 582.057 836.024, 549 840.661 C 533.189 842.879, 486.912 843.183, 471 841.174 C 414.291 834.012, 367.465 817.110, 322 787.394 C 244.222 736.557, 190.267 654.688, 174.113 563 C 170.254 541.091, 169.499 531.131, 169.565 503 C 169.646 468.909, 171.894 450.279, 179.639 419.500 C 187.309 389.021, 201.391 355.614, 218.235 327.937 L 224.664 317.373 211.577 300.765 C 204.379 291.630, 198.267 283.934, 197.995 283.664 C 197.723 283.393, 195.498 286.170, 193.052 289.835 M 498.500 317.416 C 480.380 321.612, 465.097 331.604, 455.755 345.361 C 441.219 366.766, 439.120 392.050, 450.014 414.500 C 458.668 432.333, 472.540 444.443, 491.500 450.719 C 498.437 453.015, 501.161 453.367, 512 453.367 C 522.839 453.367, 525.563 453.015, 532.500 450.719 C 551.460 444.443, 565.332 432.333, 573.986 414.500 C 592.196 376.975, 572.686 332.218, 532.521 319.378 C 522.584 316.202, 507.498 315.331, 498.500 317.416 M 450.500 515.032 C 443.279 516.423, 436.859 518.624, 407 529.944 C 390.775 536.096, 366.793 545.178, 353.707 550.127 C 336.052 556.805, 328.185 560.320, 323.207 563.754 C 312.762 570.962, 310.853 572.782, 306.847 579.359 C 298.116 593.692, 297.924 594.251, 295.985 611 C 295.444 615.675, 293.843 627.600, 292.427 637.500 C 290.205 653.045, 286.071 688.028, 286.018 691.750 C 286.004 692.746, 331.857 693, 512 693 C 692.143 693, 737.996 692.746, 737.982 691.750 C 737.929 688.028, 733.795 653.045, 731.573 637.500 C 730.157 627.600, 728.556 615.675, 728.015 611 C 726.076 594.251, 725.884 593.692, 717.153 579.359 C 713.146 572.781, 711.239 570.963, 700.784 563.748 C 693.928 559.018, 690.326 557.574, 613 528.549 C 597.875 522.872, 583.025 517.392, 580 516.372 C 574.903 514.652, 570.103 514.507, 514.500 514.389 C 481.500 514.319, 452.700 514.608, 450.500 515.032 M 455 555.927 C 451.975 556.315, 440.500 560.044, 429.500 564.213 C 418.500 568.383, 399.238 575.679, 386.695 580.428 C 371.700 586.104, 362.283 590.256, 359.195 592.552 C 356.613 594.473, 353.153 596.822, 351.507 597.772 C 347.399 600.144, 337.317 610.735, 335.108 615 C 334.041 617.060, 332.580 624.054, 331.558 632 C 330.602 639.425, 329.580 646.737, 329.285 648.250 L 328.750 651 512 651 L 695.250 651 694.715 648.250 C 694.420 646.737, 693.398 639.425, 692.442 632 C 691.420 624.054, 689.959 617.060, 688.892 615 C 686.683 610.735, 676.601 600.144, 672.493 597.772 C 670.847 596.822, 667.391 594.475, 664.813 592.558 C 661.507 590.100, 650.009 585.250, 625.813 576.108 C 606.941 568.978, 587.225 561.458, 582 559.397 L 572.500 555.649 516.500 555.435 C 485.700 555.318, 458.025 555.539, 455 555.927" stroke="none" fill="#449bc3" fill-rule="evenodd"/></svg>