<svg xmlns="http://www.w3.org/2000/svg" width="1000" height="1000" viewBox="0 0 1000 1000" version="1.1"><path d="M 610.500 452.599 C 608.850 453.472, 606.378 454.398, 605.008 454.657 C 602.431 455.143, 585.475 465.422, 584.412 467.142 C 584.082 467.676, 581.906 469.325, 579.576 470.807 C 577.246 472.288, 570.460 479.350, 564.496 486.500 C 558.532 493.650, 549.990 503.775, 545.514 509 C 523.515 534.681, 489.299 574.843, 479.914 586 C 471.401 596.121, 467.554 601.854, 459.700 616.127 L 450 633.754 450.118 650.627 C 450.183 659.907, 450.521 668.850, 450.868 670.500 C 451.501 673.504, 454.755 675.663, 465.066 679.917 C 466.955 680.696, 471.875 682.886, 476 684.783 C 485.096 688.966, 487.511 689.094, 509 686.534 C 510.925 686.305, 514.975 685.830, 518 685.479 C 527.067 684.428, 528.622 684.090, 537.235 681.299 C 541.781 679.826, 545.725 678.580, 546 678.529 C 546.275 678.478, 551.675 676.793, 558 674.784 C 572.889 670.056, 593.360 663.658, 594 663.534 C 594.275 663.480, 599.675 661.788, 606 659.774 C 619.675 655.418, 641.192 648.685, 642.250 648.430 C 642.663 648.331, 643.112 648.159, 643.250 648.048 C 643.388 647.938, 644.175 647.676, 645 647.467 C 645.825 647.257, 654.825 644.537, 665 641.420 C 680.727 636.604, 684.324 635.123, 689 631.544 C 692.025 629.228, 698.010 624.979, 702.301 622.102 C 706.592 619.224, 710.601 615.774, 711.212 614.435 C 711.822 613.096, 712.681 612, 713.120 612 C 713.560 612, 715.030 610.802, 716.388 609.337 C 719.362 606.130, 719.712 603.601, 720.556 579.254 L 721.188 561.008 715.542 550.754 C 712.436 545.114, 708.419 539.150, 706.615 537.500 C 704.811 535.850, 702.110 531.888, 700.613 528.697 C 697.217 521.457, 687.169 506.327, 680.785 498.841 C 678.131 495.728, 675.450 491.678, 674.827 489.841 C 673.479 485.867, 671.485 482.890, 663.754 473.310 C 658.590 466.911, 655.764 464.692, 652.500 464.474 C 651.950 464.438, 650.600 463.911, 649.500 463.304 C 645.349 461.012, 617.849 451, 615.722 451.006 C 614.500 451.010, 612.150 451.726, 610.500 452.599" stroke="none" fill="#ff6300" fill-rule="evenodd"/><path d="M 324.661 153.549 L 314.822 166 324.661 178.451 C 330.072 185.300, 334.725 190.903, 335 190.903 C 335.275 190.903, 339.928 185.300, 345.339 178.451 L 355.178 166 345.339 153.549 C 339.928 146.700, 335.275 141.097, 335 141.097 C 334.725 141.097, 330.072 146.700, 324.661 153.549 M 226.378 222.463 C 217.095 234.268, 209.500 244.410, 209.500 245 C 209.500 246.321, 242.964 289, 244 289 C 245.036 289, 278.500 246.321, 278.500 245 C 278.500 243.679, 245.036 201, 244 201 C 243.591 201, 235.661 210.658, 226.378 222.463 M 722.661 769.549 L 712.822 782 722.661 794.451 C 728.072 801.300, 732.725 806.903, 733 806.903 C 733.275 806.903, 737.928 801.300, 743.339 794.451 L 753.178 782 743.339 769.549 C 737.928 762.700, 733.275 757.097, 733 757.097 C 732.725 757.097, 728.072 762.700, 722.661 769.549" stroke="none" fill="#ffffff" fill-rule="evenodd"/><path d="M 469.898 281.288 C 463.114 285.856, 459.161 300.685, 460.389 316.956 C 460.760 321.874, 460.778 327.036, 460.429 328.428 C 459.662 331.483, 458.611 331.039, 451.839 324.796 C 447.868 321.135, 446.054 317.988, 439.565 303.500 C 435.378 294.150, 431.013 285.712, 429.865 284.750 C 428.561 283.656, 426.104 283, 423.312 283 C 419.738 283, 418.278 283.568, 416.004 285.842 C 412.264 289.582, 411.060 294.559, 411.246 305.500 C 411.331 310.450, 411.052 317.509, 410.627 321.186 L 409.854 327.872 402.177 322.497 C 397.955 319.541, 392.449 315.161, 389.942 312.766 C 382.230 305.397, 375.939 303.429, 369.967 306.517 C 366.892 308.107, 364 312.592, 364 315.770 C 364 316.798, 367.647 325.413, 372.104 334.914 C 379.626 350.950, 380.230 352.721, 380.524 359.585 C 380.699 363.652, 380.494 367.195, 380.070 367.457 C 378.881 368.192, 371.601 363.122, 369.579 360.151 C 368.586 358.693, 365.688 355.891, 363.137 353.925 C 358.222 350.136, 347 343.495, 347 344.376 C 347 344.663, 345.477 344.262, 343.616 343.484 C 339.845 341.908, 337.629 342.106, 333.158 344.418 C 326.627 347.796, 325.068 354.874, 329.438 361.313 C 330.778 363.288, 336.255 369.089, 341.607 374.202 C 368.409 399.807, 371.861 404.204, 382.262 426 C 389.365 440.883, 393.460 453.052, 395.070 464.067 C 396.466 473.611, 396.296 473.493, 409.623 474.230 L 418.746 474.734 415.395 462.117 C 413.552 455.178, 412.034 447.897, 412.022 445.939 C 411.973 437.919, 422.310 433.416, 428.379 438.813 C 431.110 441.241, 432.801 445.762, 436.668 460.963 C 438.551 468.367, 440.195 474.528, 440.321 474.654 C 440.447 474.780, 442.437 473.141, 444.743 471.011 L 448.936 467.139 443.107 454.320 C 427.112 419.146, 421.729 409.086, 414.845 401.500 C 410.945 397.202, 409.915 393.893, 411.118 389.533 C 413.022 382.640, 420.977 380.318, 427.669 384.703 C 433.723 388.670, 443.553 405.721, 459.113 439.250 C 465.860 453.787, 468.256 457.102, 469.561 453.700 C 469.836 452.986, 466.935 445.836, 463.115 437.813 C 448.258 406.605, 442 389.201, 442 379.095 C 442 364.960, 460.597 363.782, 462.545 377.793 C 464.107 389.036, 468.172 399.671, 482.882 431 L 490.629 447.500 496.064 447.146 C 499.054 446.952, 501.653 446.649, 501.840 446.473 C 502.272 446.067, 494.708 434.755, 490.489 429.500 C 485.057 422.733, 481.733 415.490, 482.487 412.061 C 483.439 407.724, 488.280 404, 492.966 404 C 497.472 404, 499.452 405.532, 504.596 413 C 516.214 429.866, 520.658 435.794, 528.528 444.919 C 533.310 450.464, 537.752 455, 538.399 455 C 539.045 455, 543.020 457.285, 547.232 460.078 C 554.400 464.832, 558.391 468.550, 565.379 476.985 L 568.259 480.461 572.421 475.864 C 574.710 473.336, 577.998 470.535, 579.728 469.641 C 581.458 468.746, 583.094 467.656, 583.365 467.219 C 584.241 465.801, 576.742 455.694, 569.025 447.891 C 564.886 443.705, 557.664 437.818, 552.975 434.808 C 548.286 431.798, 543.724 428.247, 542.836 426.917 C 541.949 425.588, 536.666 419.550, 531.097 413.500 C 518.387 399.693, 511.701 389.886, 504.138 373.955 C 494.027 352.657, 491.769 343.358, 490.002 315.735 C 488.475 291.867, 488.203 289.422, 486.670 285.752 C 483.875 279.062, 476.226 277.027, 469.898 281.288 M 692.981 513 C 694.091 514.925, 695.938 517.625, 697.084 519 L 699.167 521.500 697.359 518.235 C 696.364 516.439, 694.518 513.739, 693.256 512.235 L 690.961 509.500 692.981 513" stroke="none" fill="#17e932" fill-rule="evenodd"/><path d="M 444.901 371.106 C 442.520 373.655, 442 375.086, 442 379.095 C 442 389.201, 448.258 406.605, 463.115 437.813 C 466.935 445.836, 469.836 452.986, 469.561 453.700 C 468.256 457.102, 465.860 453.787, 459.113 439.250 C 443.553 405.721, 433.723 388.670, 427.669 384.703 C 420.977 380.318, 413.022 382.640, 411.118 389.533 C 409.915 393.893, 410.945 397.202, 414.845 401.500 C 421.729 409.086, 427.112 419.146, 443.107 454.320 L 448.936 467.139 444.743 471.011 C 442.437 473.141, 440.447 474.780, 440.321 474.654 C 440.195 474.528, 438.551 468.367, 436.668 460.963 C 432.801 445.762, 431.110 441.241, 428.379 438.813 C 422.309 433.416, 411.969 437.920, 412.025 445.939 C 412.038 447.897, 413.534 455.113, 415.348 461.973 L 418.648 474.447 423.074 475.699 C 425.508 476.388, 432 478.035, 437.500 479.361 C 459.689 484.708, 481.844 496.047, 498.109 510.381 C 507.204 518.397, 515.321 527.852, 518.675 534.338 C 520.564 537.991, 518.052 540.474, 546.301 507.035 L 568.658 480.571 565.579 477.089 C 556.477 466.795, 554.255 464.736, 547.232 460.078 C 543.020 457.285, 539.045 455, 538.399 455 C 537.752 455, 533.310 450.464, 528.528 444.919 C 520.658 435.794, 516.214 429.866, 504.596 413 C 499.452 405.532, 497.472 404, 492.966 404 C 488.280 404, 483.439 407.724, 482.487 412.061 C 481.733 415.490, 485.057 422.733, 490.489 429.500 C 494.708 434.755, 502.272 446.067, 501.840 446.473 C 501.653 446.649, 499.054 446.952, 496.064 447.146 L 490.629 447.500 482.882 431 C 468.172 399.671, 464.107 389.036, 462.545 377.793 C 461.237 368.385, 451.050 364.524, 444.901 371.106" stroke="none" fill="#5cf370" fill-rule="evenodd"/><path d="M 350.400 530.400 C 347.448 533.352, 347 534.453, 347 538.754 L 347 543.708 334.250 544.388 C 319.920 545.153, 317.473 546.161, 315.155 552.254 C 312.345 559.634, 319.297 566.776, 327.945 565.393 C 331.869 564.765, 333.493 565.959, 330.898 567.563 C 328.914 568.790, 326.865 575.111, 327.507 578.031 C 328.512 582.609, 332.638 586, 337.202 586 C 339.363 586, 341.916 585.580, 342.875 585.067 C 343.834 584.553, 347.494 580.053, 351.008 575.067 C 354.522 570.080, 357.668 566, 358 566 C 358.332 566, 361.478 570.080, 364.992 575.067 C 368.506 580.053, 372.166 584.553, 373.125 585.067 C 374.084 585.580, 376.637 586, 378.798 586 C 383.362 586, 387.488 582.609, 388.493 578.031 C 389.135 575.111, 387.086 568.790, 385.102 567.563 C 382.623 566.031, 384.303 565.126, 389.290 565.308 C 395.977 565.551, 399.498 563.409, 401.077 558.137 C 402.001 555.054, 401.958 553.698, 400.868 551.473 C 398.236 546.100, 395.613 545.128, 381.750 544.388 L 369 543.708 369 538.754 C 369 534.453, 368.552 533.352, 365.600 530.400 C 362.813 527.613, 361.443 527, 358 527 C 354.557 527, 353.187 527.613, 350.400 530.400" stroke="none" fill="#00930a" fill-rule="evenodd"/><path d="M 312.146 568.550 C 299.508 578.049, 290.383 591.102, 284.916 607.500 C 282.898 613.552, 282.583 616.465, 282.588 629 C 282.593 641.487, 282.917 644.472, 284.917 650.500 C 290.601 667.626, 303.044 683.285, 317.813 691.897 C 350.764 711.112, 395.270 703.774, 416.743 675.586 C 423.387 666.863, 427.552 659.101, 430.627 649.707 C 432.988 642.493, 433.319 639.867, 433.362 628 C 433.404 616.447, 433.075 613.490, 431.080 607.500 C 426.668 594.247, 421.204 585.193, 412.009 575.903 C 402.070 565.862, 398.338 563.541, 394.488 565.004 C 393.045 565.553, 390.095 565.719, 387.932 565.373 C 384.121 564.764, 382.545 565.983, 385.102 567.563 C 387.086 568.790, 389.135 575.111, 388.493 578.031 C 387.488 582.609, 383.362 586, 378.798 586 C 376.637 586, 374.084 585.580, 373.125 585.067 C 372.166 584.553, 368.506 580.053, 364.992 575.067 C 361.478 570.080, 358.332 566, 358 566 C 357.668 566, 354.522 570.080, 351.008 575.067 C 347.494 580.053, 343.834 584.553, 342.875 585.067 C 341.916 585.580, 339.363 586, 337.202 586 C 332.638 586, 328.512 582.609, 327.507 578.031 C 326.865 575.111, 328.914 568.790, 330.898 567.563 C 333.347 566.050, 331.736 565.031, 327.250 565.255 C 324.637 565.386, 321.547 565.146, 320.383 564.721 C 318.737 564.121, 316.902 564.975, 312.146 568.550" stroke="none" fill="#d90e00" fill-rule="evenodd"/><path d="M 482.500 124.095 C 451.534 126.175, 422.600 131.630, 392.944 140.980 L 379.893 145.095 383.808 149.797 C 389.417 156.535, 391.002 160.159, 390.984 166.200 C 390.965 172.198, 389.364 175.416, 381.535 185.184 C 378.804 188.591, 377.229 191.111, 378.035 190.782 C 407.758 178.672, 432.481 172.154, 467 167.327 C 484.678 164.856, 531.322 164.856, 549 167.327 C 592.185 173.366, 625.137 183.436, 661 201.554 C 694.169 218.312, 721.070 237.901, 748.034 264.931 C 801.847 318.875, 833.924 384.494, 844.611 462.500 C 847.116 480.779, 847.148 527.219, 844.668 545 C 840.106 577.715, 833.990 601.648, 823.329 628.500 C 809.399 663.590, 789.318 696.788, 764.694 725.441 C 757.988 733.245, 757.169 734.610, 758.255 736.168 C 761.480 740.792, 782.572 766.913, 783.115 766.954 C 784.025 767.022, 801.622 746.787, 809.163 737 C 899.342 619.954, 914.151 461.998, 847.225 331 C 777.892 195.290, 634.407 113.893, 482.500 124.095 M 288.948 192.565 C 287.051 193.979, 284.882 195.491, 284.127 195.926 C 283.099 196.518, 285.948 200.778, 295.450 212.859 C 302.433 221.736, 308.496 229, 308.923 229 C 309.913 229, 318 223.166, 318 222.452 C 318 222.045, 296.582 194.832, 293.046 190.748 C 292.688 190.334, 290.844 191.152, 288.948 192.565 M 192.090 291.366 C 157.989 341.903, 136.775 399.815, 129.402 462.500 C 126.962 483.251, 126.937 524.971, 129.353 545 C 136.036 600.401, 151.458 647.851, 177.455 693 C 216.203 760.294, 272.543 812.838, 342.557 846.980 C 433.695 891.422, 542.724 896.891, 638.411 861.821 C 661.324 853.423, 697.124 836.090, 706.698 828.759 C 707.559 828.100, 704.215 823.240, 694.832 811.515 L 681.768 795.189 676.672 798.194 C 666.712 804.066, 646.298 813.829, 632.500 819.318 C 605.696 829.981, 582.057 836.024, 549 840.661 C 533.189 842.879, 486.912 843.183, 471 841.174 C 414.291 834.012, 367.465 817.110, 322 787.394 C 244.222 736.557, 190.267 654.688, 174.113 563 C 170.254 541.091, 169.499 531.131, 169.565 503 C 169.646 468.909, 171.894 450.279, 179.639 419.500 C 187.163 389.601, 201.013 356.473, 217.183 329.700 C 220.438 324.309, 223.335 319.291, 223.620 318.547 C 224.048 317.433, 198.720 284, 197.448 284 C 197.235 284, 194.824 287.315, 192.090 291.366 M 813.316 514.520 C 813.634 516.159, 814.211 519.525, 814.600 522 C 815.303 526.470, 815.313 526.480, 816.177 523.500 C 817.286 519.672, 816.409 514.584, 814.343 512.870 C 812.919 511.688, 812.804 511.871, 813.316 514.520" stroke="none" fill="#00ac16" fill-rule="evenodd"/><path d="M 329.136 101.751 C 323.788 103.315, 323.705 103.402, 303.250 128.910 C 291.964 142.984, 282.063 156.072, 281.249 157.994 C 279.204 162.822, 279.389 170.201, 281.669 174.728 C 282.713 176.803, 292.630 189.790, 303.706 203.588 L 323.843 228.677 329.421 230.264 C 334.529 231.717, 335.478 231.714, 340.670 230.238 L 346.339 228.625 366.766 203.062 C 378.001 189.003, 387.876 175.928, 388.712 174.006 C 390.651 169.545, 390.656 162.473, 388.722 157.994 C 387.893 156.072, 378.024 143.009, 366.792 128.964 C 345.098 101.838, 346.232 102.885, 336 100.527 C 335.175 100.337, 332.086 100.887, 329.136 101.751 M 325.143 152.535 C 320.065 158.880, 315.685 164.658, 315.409 165.376 C 314.927 166.632, 333.511 191, 334.952 191 C 335.980 191, 355 167.317, 355 166.037 C 355 164.851, 335.914 141, 334.965 141 C 334.641 141, 330.222 146.191, 325.143 152.535 M 239.500 159.907 C 237.850 160.317, 235.542 161.167, 234.371 161.797 C 232.492 162.806, 181.386 226.898, 176.449 234.436 C 173.728 238.591, 173.717 251.393, 176.431 255.535 C 177.479 257.134, 186.473 268.764, 196.418 281.378 C 206.363 293.993, 218.456 309.416, 223.291 315.652 C 228.272 322.077, 233.473 327.713, 235.291 328.657 C 239.422 330.802, 248.531 330.826, 252.619 328.704 C 254.611 327.669, 265.473 314.694, 282.683 292.792 C 297.503 273.931, 310.493 257.179, 311.551 255.564 C 314.282 251.393, 314.282 238.607, 311.551 234.436 C 305.746 225.572, 255.329 162.707, 253.119 161.576 C 249.606 159.779, 243.183 158.992, 239.500 159.907 M 226.250 221.965 C 216.762 234.031, 209 244.401, 209 245.009 C 209 246.388, 242.916 289.500, 244 289.500 C 245.089 289.500, 279 246.385, 279 245 C 279 243.871, 245.378 200.700, 244.159 200.264 C 243.797 200.134, 235.738 209.900, 226.250 221.965 M 727.136 717.751 C 721.788 719.315, 721.705 719.402, 701.250 744.910 C 689.964 758.984, 680.063 772.072, 679.249 773.994 C 677.402 778.356, 677.352 785.499, 679.139 789.688 C 679.888 791.441, 689.778 804.524, 701.118 818.761 L 721.736 844.646 727.368 846.248 C 732.532 847.718, 733.467 847.718, 738.627 846.250 L 744.254 844.649 764.762 819.075 C 776.042 805.009, 785.937 791.928, 786.751 790.006 C 788.809 785.147, 788.613 777.793, 786.305 773.272 C 785.246 771.197, 775.351 758.226, 764.315 744.446 C 743.052 717.896, 744.090 718.852, 734 716.527 C 733.175 716.337, 730.086 716.887, 727.136 717.751 M 722.723 768.979 C 717.375 775.567, 713 781.443, 713 782.037 C 713 783.279, 732.005 807, 733 807 C 734.014 807, 753 783.267, 753 782 C 753 780.774, 734.031 757, 733.052 757 C 732.719 757, 728.071 762.390, 722.723 768.979" stroke="none" fill="#ffd51d" fill-rule="evenodd"/><path d="M 379.298 473.095 C 366.916 474.199, 341.927 478.903, 337.500 480.964 C 336.400 481.476, 332.350 483.074, 328.500 484.515 C 300.269 495.084, 275.381 515.465, 263.724 537.563 C 256.785 550.717, 253.679 562.633, 253.575 576.500 C 253.500 586.605, 253.969 589.080, 258.685 603.456 C 262.320 614.536, 271.965 630.041, 279.553 637 L 282.278 639.500 281.658 633.982 C 280.788 626.250, 282.514 612.778, 285.500 604.001 C 290.298 589.893, 299.967 576.680, 311.797 568.066 L 317.866 563.646 315.933 561.188 C 312.916 557.352, 313.353 551.493, 316.923 547.923 C 318.531 546.315, 320.496 545, 321.290 545 C 322.451 545, 322.642 543.681, 322.267 538.250 C 320.426 511.560, 353.795 491.922, 393.979 496.046 C 409.139 497.601, 420.664 501.750, 430.686 509.259 C 440.768 516.812, 444.945 524.653, 444.978 536.090 C 444.997 542.581, 444.557 544.567, 441.942 549.799 C 438.116 557.456, 431.090 563.896, 421.645 568.405 C 417.715 570.281, 413.695 572.075, 412.711 572.392 C 411.192 572.880, 411.728 573.919, 416.259 579.259 C 426.510 591.343, 432.248 604.535, 434.007 620.061 C 436.165 639.112, 429.950 660.654, 418.325 674.423 C 416.503 676.580, 415.122 678.448, 415.256 678.574 C 416.005 679.274, 442.737 673.688, 447.145 671.911 L 449.790 670.844 449.927 651.672 L 450.063 632.500 459.531 615.436 C 464.739 606.051, 469 597.917, 469 597.361 C 469 596.804, 467.831 595.258, 466.403 593.924 C 460.386 588.309, 458.111 577.339, 461.381 569.718 C 463.067 565.787, 468.143 560.915, 473.485 558.100 C 479.144 555.118, 490.238 555.170, 496.490 558.207 L 501.034 560.415 504.264 556.457 C 506.040 554.281, 510.308 549.256, 513.747 545.292 C 517.186 541.328, 520 537.686, 520 537.199 C 520 535.447, 509.816 521.859, 504.575 516.619 C 488.469 500.513, 466.567 487.662, 444.500 481.371 C 436.058 478.964, 421.740 475.896, 417 475.479 C 414.525 475.261, 409.016 474.801, 404.757 474.457 C 400.498 474.112, 396.759 473.419, 396.448 472.915 C 395.809 471.882, 392.520 471.917, 379.298 473.095" stroke="none" fill="#faa91d" fill-rule="evenodd"/><path d="M 372.517 496.106 C 342.334 499.283, 320.918 516.993, 322.204 537.712 C 322.416 541.128, 322.820 544.154, 323.102 544.435 C 323.384 544.717, 328.876 544.665, 335.307 544.321 L 347 543.694 347 538.747 C 347 534.454, 347.450 533.350, 350.400 530.400 C 353.187 527.613, 354.557 527, 358 527 C 361.443 527, 362.813 527.613, 365.600 530.400 C 368.578 533.378, 369 534.433, 369 538.900 L 369 544 375.750 544.051 C 388.484 544.148, 395.727 545.395, 398.456 547.959 C 402.016 551.303, 402.710 556.132, 400.234 560.327 L 398.252 563.687 404.559 568.354 L 410.866 573.022 416.329 570.978 C 428.435 566.449, 438.151 558.166, 442.622 548.565 C 445.709 541.936, 445.897 530.572, 443.024 524.244 C 436.032 508.840, 418.042 498.515, 393.873 496.035 C 388.326 495.466, 383.048 495.060, 382.144 495.133 C 381.240 495.206, 376.908 495.644, 372.517 496.106 M 473.485 558.100 C 468.143 560.915, 463.067 565.787, 461.381 569.718 C 458.022 577.545, 460.371 588.228, 466.793 594.326 L 469.768 597.152 480.134 584.916 C 485.835 578.186, 492.834 569.902, 495.686 566.508 L 500.872 560.336 496.409 558.168 C 490.239 555.171, 479.107 555.137, 473.485 558.100" stroke="none" fill="#e39713" fill-rule="evenodd"/><path d="" stroke="none" fill="#f58619" fill-rule="evenodd"/><path d="M 714.669 392.625 C 712.642 393.327, 709.300 395.265, 707.242 396.931 C 703.165 400.233, 698.337 404.058, 689.524 410.970 C 680.712 417.880, 681.463 414.964, 677.006 459.579 C 674.477 484.889, 674.476 488.628, 676.989 492.750 C 678.079 494.538, 679.459 496, 680.057 496 C 680.654 496, 680.436 495.293, 679.571 494.429 C 676.982 491.839, 677.799 491.462, 680.500 494 C 683.064 496.409, 683.778 497.599, 682 496.500 C 680.030 495.282, 681.055 497.794, 684.087 501.612 C 688.034 506.584, 688.867 507.253, 686.594 503.627 C 685.603 502.047, 685.244 501.033, 685.796 501.374 C 686.347 501.715, 687.778 503.653, 688.975 505.682 C 690.702 508.609, 690.791 509.074, 689.405 507.935 C 688.405 507.113, 688.856 508.314, 690.463 510.750 C 693.552 515.434, 695.217 516.626, 692.559 512.250 L 690.889 509.500 693.220 512.235 C 694.502 513.739, 696.374 516.439, 697.381 518.235 L 699.212 521.500 696.550 518.500 C 693.893 515.505, 693.892 515.505, 695.586 518.291 C 696.520 519.825, 698.120 521.529, 699.142 522.076 C 700.164 522.623, 700.993 523.617, 700.985 524.285 C 700.975 525.048, 700.609 524.942, 700 524 C 699.467 523.175, 699.031 522.950, 699.031 523.500 C 699.031 525.197, 700.860 527.500, 702.214 527.508 C 702.959 527.512, 703.500 528.712, 703.500 530.361 C 703.500 534.789, 708.696 538.383, 720.390 542.045 C 725.950 543.786, 732.975 546.029, 736 547.029 C 739.025 548.029, 746.225 550.281, 752 552.035 C 757.775 553.789, 764.428 555.848, 766.785 556.612 C 772.289 558.395, 776.514 558.372, 779.846 556.541 C 781.306 555.739, 787 552.515, 792.500 549.377 C 798 546.240, 803.850 543.001, 805.500 542.182 C 810.831 539.533, 814.837 533.538, 815.140 527.757 C 815.349 523.757, 812.935 511.537, 811.699 510.337 C 811.039 509.697, 804.425 507.762, 797 506.036 C 789.575 504.311, 780.212 502.133, 776.194 501.198 L 768.888 499.496 774.185 495.498 C 786.277 486.370, 795.604 478.718, 797.192 476.622 C 799.156 474.030, 802.458 451.253, 801.562 446.478 C 801.249 444.811, 799.620 441.782, 797.943 439.746 C 794.717 435.833, 792.508 434.914, 775.738 430.507 L 766.976 428.204 759.738 431.897 C 750.784 436.467, 740.843 441.935, 739.467 443.049 C 738.899 443.508, 737.276 444.325, 735.861 444.863 L 733.288 445.841 734.172 441.171 C 739.987 410.464, 740.882 403.654, 739.528 400.414 C 737.638 395.891, 733.948 393.795, 725.553 392.478 C 719.922 391.594, 717.553 391.626, 714.669 392.625" stroke="none" fill="#0db91a" fill-rule="evenodd"/></svg>